<?xml version="1.0" encoding="UTF-8"?>
<svg id="Layer_2" xmlns="http://www.w3.org/2000/svg" viewBox="0 0 57.4 27.35">
  <defs>
    <style>
      .cls-1 {
        fill: #231f20;
      }
    </style>
  </defs>
  <g id="Layer_1-2" data-name="Layer_1">
    <g>
      <path class="cls-1" d="M4.15,24.21c0-.91-.83-1.46-2-1.46-1.03,0-1.95.56-1.95,1.33h.99c.04-.31.42-.55.98-.55.69,0,.91.36.91.63,0,.79-2.29,1.83-2.82,2.27v.7h3.87v-.78H1.93c.57-.46,2.22-1.13,2.22-2.13"/>
      <polygon class="cls-1" points="9.42 25.53 7.7 25.53 9.13 22.74 8.12 22.74 6.32 26.23 9.42 26.23 9.42 27.12 10.37 27.12 10.37 24.35 9.42 24.35 9.42 25.53"/>
      <polygon class="cls-1" points="16.3 27.12 17.34 27.12 17.34 25.39 19.91 25.39 19.91 24.54 17.34 24.54 17.34 23.58 20.43 23.58 20.43 22.74 16.3 22.74 16.3 27.12"/>
      <polygon class="cls-1" points="29.78 25.28 26.69 22.6 26.69 27.12 27.72 27.12 27.72 24.75 30.82 27.35 30.82 22.74 29.78 22.74 29.78 25.28"/>
      <path class="cls-1" d="M13.3,23.13c-.47,0-.79.43-.79.86s.32.86.79.86.79-.43.79-.86-.32-.86-.79-.86M13.3,24.39c-.19,0-.34-.16-.34-.39s.15-.4.34-.4c.2,0,.34.17.34.4s-.14.39-.34.39"/>
      <rect class="cls-1" x="22.74" y="22.74" width="1.03" height="4.38"/>
      <polygon class="cls-1" points="39.89 27.12 44.02 27.12 44.02 26.28 40.92 26.28 40.92 25.25 43.61 25.25 43.61 24.53 40.92 24.53 40.92 23.59 44.02 23.58 44.02 22.74 39.89 22.74 39.89 27.12"/>
      <path class="cls-1" d="M48.53,23.69c.52,0,.91.23,1.17.62l1.01-.35c-.39-.76-1.22-1.28-2.18-1.28-1.34,0-2.43,1.01-2.43,2.26s1.09,2.26,2.43,2.26c.96,0,1.78-.53,2.18-1.28l-1.02-.35c-.24.34-.6.61-1.16.61-.76,0-1.35-.58-1.35-1.25,0-.71.62-1.25,1.35-1.25"/>
      <polygon class="cls-1" points="56.37 22.74 56.37 24.51 54.31 24.51 54.31 22.74 53.28 22.74 53.28 27.12 54.31 27.12 54.31 25.42 56.37 25.42 56.37 27.12 57.4 27.12 57.4 22.74 56.37 22.74"/>
      <polygon class="cls-1" points="33.11 23.58 34.66 23.58 34.66 27.13 35.69 27.13 35.69 23.58 37.24 23.58 37.24 22.74 33.11 22.74 33.11 23.58"/>
      <path class="cls-1" d="M14.67,5.6c0-3.39-3-5.6-7.74-5.6C3.79,0,0,2.07,0,5.11v1.79h5.42v-1.79c.23-.63.91-.98,1.74-.98,1.12,0,1.58.7,1.58,1.21C8.74,7.46,1.86,11.79.21,12.99v3.37h12.14l2.25-4.16h-4.97c1.95-1.63,5.04-3.79,5.04-6.6"/>
      <polygon class="cls-1" points="46.53 10.95 55.41 10.95 55.41 6.46 46.53 6.46 46.53 4.51 56.92 4.51 56.92 .09 40.84 .09 40.84 16.36 46.53 16.36 46.53 10.95"/>
      <path class="cls-1" d="M36.38,2.3c0-1.27-.97-2.21-2.25-2.21s-2.21.94-2.21,2.21.93,2.21,2.21,2.21,2.25-.97,2.25-2.21"/>
      <polygon class="cls-1" points="26.41 .09 20.88 .09 14.6 12.2 23.38 12.2 21.32 16.36 27.17 16.36 31.22 8.23 22.19 8.23 26.41 .09"/>
    </g>
  </g>
</svg>