<?xml version="1.0" encoding="UTF-8"?>
<svg id="Layer_2" xmlns="http://www.w3.org/2000/svg" viewBox="0 0 64.83 17.27">
  <defs>
    <style>
      .cls-1 {
        fill: #231f20;
      }
    </style>
  </defs>
  <g id="Layer_1-2" data-name="Layer_1">
    <g>
      <path class="cls-1" d="M23.29,14.2h-2.66v2.83c0,.1-.08.17-.17.17h-.44c-.1,0-.17-.08-.17-.17v-4.71c0-1.15.63-1.61,1.85-1.61.51,0,1.33.02,1.69.05.05,0,.09.07.09.12v.43c0,.06-.04.1-.1.1h-1.67c-.92,0-1.06.24-1.06.9v1.21h2.66c.1,0,.17.08.17.17v.33c0,.1-.08.17-.17.17h0Z"/>
      <path class="cls-1" d="M25.06,11.68h-.44c-.1,0-.17-.08-.17-.17v-.69c0-.1.08-.17.17-.17h.44c.1,0,.17.08.17.17v.69c0,.1-.08.17-.17.17M25.04,17.21h-.42c-.1,0-.17-.08-.17-.17v-4.42c0-.1.08-.17.17-.17h.42c.1,0,.17.08.17.17v4.42c0,.1-.08.17-.17.17"/>
      <path class="cls-1" d="M29.81,17.21h-.45c-.1,0-.16-.08-.16-.17v-3.09c0-.65-.16-.9-.75-.9h-.62c-.59,0-.75.25-.75.9v3.09c0,.1-.06.17-.16.17h-.45c-.1,0-.16-.08-.16-.17v-3.09c0-1.33.93-1.56,1.52-1.56h.62c.59,0,1.52.23,1.52,1.56v3.09c0,.1-.06.17-.16.17h0Z"/>
      <path class="cls-1" d="M33.09,17.21c-.17.03-.52.05-.83.05-.82,0-1.28-.27-1.28-1.2v-4.47c0-.08.08-.15.17-.16l.42-.07h.02c.09,0,.15.08.15.16v.92h1.35c.1,0,.16.06.16.16v.29c0,.09-.07.16-.16.16h-1.35v3.02c0,.5.16.59.64.59h.7c.12,0,.18.04.18.12v.29c0,.08-.04.13-.17.15h0Z"/>
      <path class="cls-1" d="M41.2,17.17c-.29.05-.68.1-1.08.1-1.18,0-1.85-.83-1.85-2.1v-.68c0-1.27.66-2.1,1.85-2.1.4,0,.8.04,1.08.1.14.02.17.07.17.19v.31c0,.09-.07.13-.15.13h-.04c-.38-.04-.65-.06-1.07-.06-.69,0-1.08.46-1.08,1.44v.68c0,.97.38,1.44,1.08,1.44.42,0,.69-.02,1.07-.06h.04c.08,0,.15.04.15.13v.31c0,.11-.04.16-.17.19"/>
      <path class="cls-1" d="M45.65,17.21h-.42c-.1,0-.17-.08-.17-.17v-2.91c0-.72-.35-1.09-1.12-1.09-.35,0-.73.05-1,.13v3.87c0,.1-.08.17-.17.17h-.42c-.1,0-.17-.08-.17-.17v-6.18c0-.09.06-.17.16-.17h.44c.09,0,.17.07.17.17v1.64c.29-.07.66-.12,1-.12,1.3,0,1.89.71,1.89,1.74v2.91c0,.1-.08.17-.17.17h0Z"/>
      <path class="cls-1" d="M48.34,17.25c-.56,0-1-.06-1.34-.1-.08,0-.16-.05-.16-.14v-.11c0-.08.08-.11.16-.11h.04c.45.04.82.1,1.3.1,1.31,0,1.61-.58,1.61-1.29,0-.64-.37-.87-1.34-1.46l-.54-.34c-.79-.48-1.36-.9-1.36-1.67,0-1.13,1.01-1.4,2.03-1.4.46,0,.92.05,1.29.08.09,0,.15.05.15.13v.11c0,.09-.07.12-.16.12-.19,0-.84-.09-1.28-.09-1.15,0-1.63.33-1.63,1.05,0,.54.4.86,1.17,1.33l.56.34c.96.58,1.52,1,1.52,1.8s-.34,1.65-2.01,1.65h0Z"/>
      <path class="cls-1" d="M54.29,17.09c-.38.08-.96.16-1.46.16-1.2,0-1.7-.86-1.7-2.1v-.54c0-1.25.5-2.11,1.7-2.11.49,0,1.07.09,1.46.17.1.02.13.06.13.16v4.09c0,.11-.02.14-.13.17h0ZM54.04,12.96c-.31-.05-.79-.11-1.21-.11-.97,0-1.32.65-1.32,1.77v.54c0,1.12.35,1.77,1.32,1.77.41,0,.89-.06,1.21-.11v-3.85h0Z"/>
      <path class="cls-1" d="M57.15,17.25h-.17c-.59,0-1.57-.31-1.57-1.74v-2.8c0-.09.06-.17.15-.17h.09c.09,0,.15.08.15.17v2.8c0,1.11.6,1.39,1.19,1.39h.17c.59,0,1.19-.28,1.19-1.39v-2.8c0-.09.06-.17.15-.17h.09c.08,0,.15.08.15.17v2.8c0,1.43-.98,1.74-1.57,1.74"/>
      <path class="cls-1" d="M62.74,17.09c-.38.08-.96.16-1.46.16-1.2,0-1.7-.86-1.7-2.1v-.57c0-1.37.57-2.07,1.7-2.07.34,0,.86.05,1.21.13v-1.71c0-.09.06-.17.15-.17h.09c.08,0,.15.08.15.17v6c0,.11-.02.14-.13.17h0ZM62.48,12.96c-.33-.07-.87-.11-1.21-.11-.95,0-1.32.59-1.32,1.73v.57c0,1.12.35,1.77,1.32,1.77.41,0,.89-.06,1.21-.11v-3.85Z"/>
      <path class="cls-1" d="M64.21,11.69h-.05c-.09,0-.17-.07-.17-.17v-.64c0-.08.08-.16.17-.16h.05c.08,0,.16.08.16.16v.64c0,.1-.08.17-.16.17M64.21,17.25h-.05c-.09,0-.17-.08-.17-.16v-4.38c0-.09.08-.17.17-.17h.05c.08,0,.16.08.16.17v4.38c0,.09-.08.16-.16.16"/>
      <path class="cls-1" d="M35.64,12.38c-1.24,0-1.92.91-1.92,2.14v.6c0,1.66,1.05,2.14,2.04,2.14.58,0,.98-.05,1.48-.15.14-.02.16-.08.16-.2v-.29c0-.09-.03-.17-.1-.17h-.04c-.4.14-.97.15-1.47.15-.8,0-1.25-.43-1.25-1.43v-.73c0-.89.43-1.39,1.17-1.39s1.14.47,1.14,1.39v.1h-1.81c-.09,0-.16.07-.16.16v.22c0,.09.08.16.16.16h2.37c.1,0,.12-.1.12-.21v-.36c0-1.23-.64-2.13-1.9-2.13h0Z"/>
      <path class="cls-1" d="M23.78,6.05h-.24c-.65,0-1.09-.26-1.33-.78-.23.52-.67.78-1.34.78-1,0-1.5-.69-1.5-2.08,0-.75.17-1.3.52-1.65.24-.24.57-.36.98-.36h1.47c.08,0,.15.07.15.15v2.36c0,.8.37,1.2,1.11,1.2h.17v.38s0,0,0,0ZM22.07,3.98v-1.69h-1.13c-.76,0-1.14.56-1.14,1.69s.38,1.7,1.14,1.7,1.13-.57,1.13-1.7"/>
      <path class="cls-1" d="M25.46,4.55c0,.89-.58,1.51-1.48,1.51h-.43v-.38h.38c.75,0,1.11-.4,1.11-1.2v-2.36c0-.08.07-.15.15-.15h.12c.08,0,.15.07.15.15v2.43h0Z"/>
      <path class="cls-1" d="M26.74,2.87c-.06-.06-.06-.16,0-.22.28-.27.62-.41,1.02-.41.92,0,1.53.58,1.53,1.52v2.29h-2.67c-.08,0-.15-.07-.15-.15v-.08c0-.08.07-.15.15-.15h2.24v-1.85c0-.8-.37-1.2-1.11-1.2-.31,0-.57.1-.77.29-.06.06-.15.06-.2,0l-.05-.04h0Z"/>
      <path class="cls-1" d="M30.5,7.41c.02-.08.1-.13.18-.11.17.04.36.06.57.06.38,0,.67-.13.89-.39.2-.23.31-.54.35-.92h-.92c-.5,0-.9-.2-1.19-.56-.26-.33-.39-.76-.39-1.29,0-.59.12-1.05.35-1.4.26-.4.65-.59,1.19-.59.96,0,1.44.67,1.44,1.99,0,.55,0,1.05-.03,1.47h.79v.38h-.81c-.05.51-.21.9-.49,1.19-.29.32-.67.48-1.17.48-.22,0-.45-.04-.67-.12-.07-.03-.11-.1-.09-.17v-.02s0,0,0,0ZM32.57,4.2c0-1.09-.33-1.63-1.04-1.63-.75,0-1.13.54-1.13,1.63,0,.42.09.76.28,1.03.21.3.5.44.89.44h.99c0-.62,0-1.12.02-1.47h0Z"/>
      <path class="cls-1" d="M43.98,6.05h-6.17v-.38h.85v-2.7c0-.08.07-.15.15-.15h.12c.08,0,.15.07.15.15v2.7h1.57v-3.12c0-.09.07-.15.15-.15h.12c.08,0,.15.07.15.15v3.12h1.59v-3.56c0-.08.07-.15.15-.15h.12c.08,0,.15.07.15.15v3.56h.9v.38h0Z"/>
      <path class="cls-1" d="M45.73,4.55c0,.89-.58,1.51-1.48,1.51h-.59v-.38h.54c.75,0,1.11-.4,1.11-1.2V.38c0-.08.07-.15.15-.15h.12c.08,0,.15.07.15.15v4.16h0Z"/>
      <path class="cls-1" d="M47.04,6.05h-.42V.38c0-.08.07-.15.15-.15h.12c.08,0,.15.07.15.15v5.67h0Z"/>
      <path class="cls-1" d="M54.92,6.05h-.22c-.6,0-1.04-.21-1.32-.63-.3.42-.77.63-1.42.63h-2.42c-.97,0-1.62-.62-1.62-1.55v-.7c0-.11.09-.21.21-.21h.43c.12,0,.21.09.21.2v.62c0,.59.3.88.89.88h2.26c.6,0,.9-.3.9-.88V.39c0-.08.07-.15.15-.15h.54c.08,0,.15.07.15.15v3.76c0,.77.37,1.16,1.11,1.16h.17v.76h0ZM51.93,3.35h-2.58c-.08,0-.15-.07-.15-.15v-.22c0-.08.07-.15.15-.15h.72v-.18c0-.68.42-1.21,1.13-1.21.23,0,.46.09.67.26.07.06.07.16,0,.22l-.17.17c-.06.06-.15.06-.21,0-.11-.1-.23-.15-.36-.15-.35,0-.52.21-.52.61v.26h1.32c.08,0,.15.07.15.15v.22c0,.08-.07.15-.15.15h0Z"/>
      <path class="cls-1" d="M58.11,6.05h-.39c-.53,0-.94-.16-1.25-.48-.3.32-.73.48-1.28.48h-.34v-.74h.28c.6,0,.9-.31.9-.92v-1.98c0-.09.09-.17.18-.15l.54.1c.07.01.12.07.12.15v1.9c0,.59.3.89.89.89h.33v.74h0Z"/>
      <path class="cls-1" d="M61.29,6.05h-.39c-.53,0-.94-.16-1.25-.48-.3.32-.73.48-1.28.48h-.34v-.74h.28c.6,0,.9-.31.9-.92v-1.98c0-.09.09-.17.18-.15l.54.09c.07.01.12.07.12.15v1.91c0,.59.3.89.89.89h.33v.74h0Z"/>
      <path class="cls-1" d="M37.86,6.05h-1.13c-.19,0-.7-.05-1.03-.17-.23.12-.48.17-.77.17h-1.19v-.38c1.19.03,1.37,0,1.47-.08-.95-.59-1.39-1.35-1.33-2.29.03-.41.18-.73.44-.97.3-.26.69-.38,1.19-.37.51,0,1.05.16,1.43.52.61.58.58,1.61.22,2.31-.18.35-.42.62-.74.79.08.08.56.11,1.44.08v.38h0ZM35.71,5.47c.32-.12.83-.33,1.02-.66.29-.5.39-1.15.17-1.69-.24-.59-.87-.78-1.46-.82-.72-.04-1.21.44-1.21,1.17,0,.38.11.75.36,1.11.28.42.66.71,1.12.88"/>
      <path class="cls-1" d="M20.65.89h-.05c-.08,0-.15-.06-.15-.15V.15c0-.08.07-.15.15-.15h.05c.08,0,.15.07.15.15v.59c0,.09-.07.15-.15.15"/>
      <path class="cls-1" d="M21.69.89h-.05c-.08,0-.15-.06-.15-.15V.15c0-.08.07-.15.15-.15h.05c.08,0,.15.07.15.15v.59c0,.09-.07.15-.15.15"/>
      <path class="cls-1" d="M23.99,7.95h-.05c-.08,0-.15-.06-.15-.15v-.59c0-.08.07-.15.15-.15h.05c.08,0,.15.07.15.15v.59c0,.09-.07.15-.15.15"/>
      <path class="cls-1" d="M25.02,7.95h-.05c-.08,0-.15-.06-.15-.15v-.59c0-.08.07-.15.15-.15h.05c.08,0,.15.07.15.15v.59c0,.09-.07.15-.15.15"/>
      <path class="cls-1" d="M64.41,2.27c-.31-.3-.78-.46-1.38-.46-1.08,0-1.74.57-1.74,1.44,0,.49.1.84.29,1.05.22.26.62.39,1.19.39h.65c.09,0,.16-.07.16-.16v-.4c0-.09-.07-.16-.16-.16h-.48c-.36,0-.58-.04-.67-.11-.09-.08-.13-.27-.13-.59,0-.48.29-.71.9-.71.64,0,.95.23.95.71v1.42c0,.28-.1.46-.29.54-.1.03-.31.05-.63.05l-1.83.02v.74h1.94c.54,0,.93-.09,1.18-.28.31-.23.48-.6.48-1.14v-1.38c0-.4-.14-.72-.42-.98h0Z"/>
      <path class="cls-1" d="M59.45.24h.44c.1,0,.17.08.17.17v.69c0,.1-.08.17-.17.17h-.44c-.1,0-.17-.08-.17-.17V.41c0-.1.08-.17.17-.17"/>
      <path class="cls-1" d="M62.87.24h.44c.1,0,.17.08.17.17v.69c0,.1-.08.17-.17.17h-.44c-.1,0-.17-.08-.17-.17V.41c0-.1.08-.17.17-.17"/>
      <path class="cls-1" d="M56.82.24h.44c.1,0,.17.08.17.17v.69c0,.1-.08.17-.17.17h-.44c-.1,0-.17-.08-.17-.17V.41c0-.1.08-.17.17-.17"/>
      <path class="cls-1" d="M55.63.24h.44c.1,0,.17.08.17.17v.69c0,.1-.08.17-.17.17h-.44c-.1,0-.17-.08-.17-.17V.41c0-.1.08-.17.17-.17"/>
      <path class="cls-1" d="M1.48,7.67l-1.21-.7c-.12-.07-.27.02-.27.16v3.01c0,.14.15.23.27.16l1.21-.7c.05-.03.09-.09.09-.16v-1.61c0-.07-.04-.12-.09-.16"/>
      <path class="cls-1" d="M1.67,5.85l1.39-.8c.05-.03.09-.09.09-.16v-1.4c0-.14-.15-.23-.27-.16L.27,4.83c-.12.07-.12.24,0,.31l1.21.7c.05.03.13.03.18,0h0Z"/>
      <path class="cls-1" d="M1.48,11.41l-1.22.71c-.12.07-.12.24,0,.31l2.61,1.53c.12.07.28-.02.27-.16v-1.43c0-.06-.04-.12-.1-.16l-1.39-.81c-.05-.03-.13-.03-.18,0"/>
      <path class="cls-1" d="M4.72,13.5v1.4c0,.07.04.12.1.16l2.97,1.72c.05.03.13.03.18,0l2.97-1.72c.05-.03.09-.09.09-.16v-1.4c0-.14-.15-.23-.27-.16l-2.8,1.61c-.06.03-.13.03-.18,0l-2.8-1.61c-.12-.07-.27.02-.27.16"/>
      <path class="cls-1" d="M3.15,6.92v3.43c0,.07.03.12.09.16l4.55,2.62c.05.03.13.03.18,0l4.55-2.62c.05-.03.09-.09.09-.16v-3.43c0-.07-.04-.12-.09-.16l-4.55-2.62c-.05-.03-.13-.03-.18,0l-4.55,2.62c-.06.03-.09.09-.09.16M11.04,7.82v1.61c0,.07-.04.12-.09.16l-2.98,1.73c-.06.03-.13.03-.18,0l-2.98-1.73c-.05-.03-.09-.09-.09-.16v-1.61c0-.07.04-.13.09-.16l2.98-1.71c.05-.03.12-.03.18,0l2.98,1.71c.06.03.09.09.09.16"/>
      <path class="cls-1" d="M14.29,9.6l1.2.7c.12.07.27-.02.27-.16v-3.01c0-.14-.15-.23-.27-.16l-1.2.7c-.06.03-.09.09-.09.16v1.61c0,.07.04.12.09.16"/>
      <path class="cls-1" d="M14.27,5.85l1.21-.7c.12-.07.12-.24,0-.31l-2.6-1.5c-.12-.07-.27.02-.27.16v1.4c0,.07.04.12.1.16l1.39.8c.05.03.13.03.18,0h0Z"/>
      <path class="cls-1" d="M14.09,11.41l-1.39.81c-.05.03-.09.09-.09.16v1.43c0,.14.15.23.27.16l2.62-1.53c.12-.07.12-.24,0-.31l-1.22-.71c-.06-.03-.13-.03-.18,0"/>
      <path class="cls-1" d="M11.04,3.77v-1.4c0-.07-.04-.12-.1-.16L7.97.5c-.05-.03-.13-.03-.18,0l-2.97,1.71c-.05.03-.09.09-.09.16v1.4c0,.14.15.23.27.16l2.8-1.61c.05-.03.13-.03.18,0l2.8,1.61c.12.07.27-.02.27-.16"/>
    </g>
  </g>
</svg>