<?xml version="1.0" encoding="UTF-8"?>
<svg id="Layer_2" xmlns="http://www.w3.org/2000/svg" viewBox="0 0 297.62 55.06">
  <defs>
    <style>
      .cls-1 {
        fill: #fff;
      }
    </style>
  </defs>
  <g id="Layer_1-2" data-name="Layer_1">
    <g>
      <path class="cls-1" d="M33.88,19.65v2.09h-10.08c-1.8,0-3.21-.25-4.24-.76-1.03-.5-1.77-1.31-2.23-2.41-.45-1.1-.68-2.6-.68-4.5s.22-3.38.65-4.51c.43-1.13,1.15-1.96,2.15-2.48,1-.53,2.35-.79,4.04-.79.75,0,1.89.04,3.44.11,1.55.07,2.71.15,3.5.23v13.02h3.45ZM18.98,14.02c0,1.39.17,2.49.5,3.3.33.81.87,1.4,1.62,1.77.75.37,1.78.56,3.09.56h3.91v-11.05c-1.78-.12-3.15-.18-4.12-.18-1.84,0-3.13.43-3.88,1.3-.75.87-1.12,2.3-1.12,4.3M21.34,1.24h2.3v2.54h-2.3V1.24ZM25.13,1.24h2.3v2.54h-2.3V1.24ZM49.57,6.94v14.81h-15.69v-2.09h4.3c-.54-1.07-.82-2.78-.82-5.12,0-2.08.22-3.68.65-4.82.43-1.13,1.16-1.93,2.18-2.39,1.02-.46,2.47-.7,4.35-.7,1.53,0,2.93.07,4.18.21l.85.09ZM39.67,14.48c0,2.56.37,4.29,1.12,5.18h6.45v-10.87c-1.37-.1-2.34-.15-2.91-.15-1.27,0-2.24.19-2.91.58-.67.38-1.13.99-1.38,1.82-.25.83-.38,1.98-.38,3.45M42.91,1.24h2.3v2.54h-2.3V1.24ZM59.29,19.65v2.09h-5.18V0h2.33v19.65h2.85ZM59.29,19.65h7.57v2.09h-7.57v-2.09ZM66.86,19.65h7.57v2.09h-7.57v-2.09ZM74.43,19.65h7.57v2.09h-7.57v-2.09ZM82,19.65h7.57v2.09h-7.57v-2.09ZM89.57,19.65h7.57v2.09h-7.57v-2.09ZM97.14,19.65h7.57v2.09h-7.57v-2.09ZM104.71,19.65h7.57v2.09h-7.57v-2.09ZM112.29,19.65h7.57v2.09h-7.57v-2.09ZM119.86,19.65h7.57v2.09h-7.57v-2.09ZM127.43,19.65h7.57v2.09h-7.57v-2.09ZM135,19.65h7.57v2.09h-7.57v-2.09ZM153.93,19.65v2.09h-11.36v-2.09h4.51V6.6h2.33v13.05h4.51ZM145.17,24.17h2.3v2.54h-2.3v-2.54ZM148.96,24.17h2.3v2.54h-2.3v-2.54ZM179,19.65v2.09h-25.08v-2.09h4.42V6.6h2.33v4.84c.91-1.13,1.73-2.05,2.47-2.76.74-.71,1.6-1.28,2.59-1.73.99-.44,2.13-.67,3.42-.67,2.54,0,4.35.78,5.41,2.35,1.06,1.57,1.59,3.4,1.59,5.5v5.51h2.85ZM168.92,8.39c-1.25,0-2.41.34-3.48,1.03-1.07.69-1.94,1.42-2.61,2.2-.67.78-1.38,1.7-2.15,2.77v5.27h13.14v-5.18c0-1.74-.42-3.18-1.26-4.35-.84-1.16-2.05-1.74-3.65-1.74M166.19,1.24h2.3v2.54h-2.3V1.24ZM188.9,19.65v2.09h-9.9v-2.09h3.73V0h2.33v19.65h3.85ZM194.96,0v21.74h-6.06v-2.09h3.72V0h2.33Z"/>
      <path class="cls-1" d="M208.31,28.03c-1.17-.53-2.1-1.26-2.78-2.2-.68-.94-1.03-2.01-1.03-3.22,0-.74.12-1.99.35-3.75.23-1.76.51-3.53.82-5.3l2.17.12c-.29,1.91-.55,3.72-.76,5.4-.21,1.69-.32,2.82-.32,3.38,0,.84.24,1.59.72,2.25.48.66,1.13,1.18,1.95,1.54.82.36,46.61.54,47.61.54,1.45,0,2.67-.38,3.68-1.13,1-.75,1.51-1.82,1.51-3.21V6.91h2.26v15.82c0,1.31-.34,2.42-1.01,3.34-.67.92-1.57,1.61-2.7,2.07-1.12.46-2.35.69-3.68.69-1.43,0-47.61-.26-48.78-.79M256.04,4.45h2.23v2.46h-2.23v-2.46Z"/>
      <rect class="cls-1" x="268.87" y=".52" width="2.26" height="21.03"/>
      <path class="cls-1" d="M276.23,28.82c-.26-.02-.49-.04-.69-.06l-.61-.06v-1.99c.98.08,1.59.12,1.85.12.98,0,1.7-.39,2.18-1.16.48-.77.72-1.85.72-3.24V6.94h2.26v14.94c0,4.65-1.61,6.97-4.83,6.97-.31,0-.6-.01-.86-.03M279.65,1.72h2.23v2.46h-2.23V1.72Z"/>
      <polygon class="cls-1" points="83.26 54.74 83.26 41.22 84.8 41.22 84.8 46.86 92.42 46.86 92.42 41.22 93.96 41.22 93.96 54.74 92.42 54.74 92.42 48.26 84.8 48.26 84.8 54.74 83.26 54.74"/>
      <path class="cls-1" d="M106.55,47.99c0-2,.69-3.67,2.07-5.01,1.4-1.34,3.09-2.02,5.08-2.02s3.69.68,5.07,2.02c1.4,1.34,2.09,3.01,2.09,5.01s-.69,3.69-2.09,5.03c-1.38,1.34-3.07,2-5.07,2s-3.68-.66-5.08-2c-1.38-1.34-2.07-3.03-2.07-5.03M108.07,47.99c0,1.61.53,2.97,1.6,4.04,1.08,1.07,2.42,1.59,4.04,1.59s2.96-.52,4.02-1.59c1.06-1.07,1.6-2.42,1.6-4.04s-.53-2.95-1.6-4.02-2.4-1.61-4.02-1.61-2.96.54-4.04,1.61c-1.07,1.07-1.6,2.41-1.6,4.02"/>
      <path class="cls-1" d="M133.76,51.17c.69,1.63,1.83,2.45,3.45,2.45,1.16,0,1.99-.39,2.33-.95.34-.56.43-.97.43-1.44,0-.74-.24-1.3-.69-1.69-.45-.39-1.26-.84-2.38-1.32-1.24-.54-2.17-1.09-2.74-1.61-.57-.52-.87-1.3-.87-2.29s.36-1.77,1.07-2.41c.71-.64,1.62-.95,2.7-.95,1.67,0,2.92.72,3.7,2.15l-1.32.66c-.51-.95-1.32-1.42-2.4-1.42-1.24,0-2.21.82-2.21,1.92,0,.7.18,1.16.81,1.63.34.21.59.39.81.5l1.18.52c1.4.6,2.39,1.2,2.98,1.8.61.58.91,1.4.91,2.46s-.37,2.02-1.14,2.74c-.75.72-1.81,1.07-3.17,1.07-2.19,0-3.96-1.09-4.75-3.24l1.32-.6Z"/>
      <path class="cls-1" d="M154.13,54.74v-13.53h4.4c1.16,0,2.17.39,2.98,1.18.81.78,1.22,1.75,1.22,2.93s-.41,2.15-1.22,2.95c-.81.78-1.81,1.16-2.98,1.16h-2.86v5.3h-1.54ZM155.67,48.05h2.8c.77,0,1.42-.25,1.93-.77.53-.52.79-1.16.79-1.94s-.26-1.42-.79-1.94c-.51-.52-1.16-.78-1.93-.78h-2.8v5.43Z"/>
      <rect class="cls-1" x="175.36" y="41.22" width="1.54" height="13.53"/>
      <polygon class="cls-1" points="192.97 54.74 192.97 42.61 189.23 42.61 189.23 41.22 198.25 41.22 198.25 42.61 194.51 42.61 194.51 54.74 192.97 54.74"/>
      <path class="cls-1" d="M207.71,54.74l5.82-13.53h1.18l5.82,13.53h-1.65l-1.42-3.34h-6.66l-1.42,3.34h-1.66ZM211.38,50.01h5.48l-2.74-6.44-2.74,6.44Z"/>
      <polygon class="cls-1" points="232.87 54.74 232.87 41.22 234.41 41.22 234.41 53.34 240.07 53.34 240.07 54.74 232.87 54.74"/>
      <rect class="cls-1" x="252.58" y="41.22" width="1.54" height="13.53"/>
      <polygon class="cls-1" points="270.19 54.74 270.19 42.61 266.45 42.61 266.45 41.22 275.47 41.22 275.47 42.61 271.73 42.61 271.73 54.74 270.19 54.74"/>
      <polygon class="cls-1" points="291.3 54.74 291.3 49.19 286.47 41.22 288.16 41.22 292.08 47.7 295.97 41.22 297.62 41.22 292.83 49.19 292.83 54.74 291.3 54.74"/>
      <polygon class="cls-1" points="0 55.06 0 54.08 8.82 42.38 1.01 42.38 1.01 40.92 10.98 40.92 10.98 41.97 2.22 53.6 11.12 53.6 11.12 55.06 0 55.06"/>
      <path class="cls-1" d="M22.68,55.06l6.08-14.14h1.24l6.08,14.14h-1.73l-1.48-3.49h-6.96l-1.48,3.49h-1.73ZM26.51,50.11h5.73l-2.86-6.73-2.86,6.73Z"/>
      <polygon class="cls-1" points="48.99 55.06 48.99 40.92 50.39 40.92 59.06 52.24 59.06 40.92 60.67 40.92 60.67 55.06 59.37 55.06 50.6 43.62 50.6 55.06 48.99 55.06"/>
    </g>
  </g>
</svg>