<?xml version="1.0" encoding="UTF-8"?>
<svg id="Layer_2" xmlns="http://www.w3.org/2000/svg" viewBox="0 0 65.08 43.28">
  <defs>
    <style>
      .cls-1 {
        fill: #231f20;
      }
    </style>
  </defs>
  <g id="Layer_1-2" data-name="Layer_1">
    <g>
      <path class="cls-1" d="M5.04,41.37c.22-.4.47-.76.72-1.12l-.68.11c-.86,1.37-2.27,2.81-4,2.81-.61,0-1.01-.29-1.01-.68,0-.25.18-.47.4-.47s.4.11.4.36-.18.36-.32.36c-.07,0-.15,0-.15.07,0,.18.4.25.68.25,1.55,0,2.56-1.66,3.32-2.63-.83.18-1.55.54-2.05,1.01l-.07-.04c.36-.43,1.44-1.01,2.2-1.08.61-.9,1.95-2.45,3.03-3.14v-.04c-.47.29-.83.47-1.26.47-.72,0-.97-.72-1.87-.72s-1.91.83-1.91,1.73c0,.54.43.79.79.79.76,0,1.8-.86,1.98-1.55h.07c-.18.83-1.01,1.66-1.95,1.66-.61,0-1.01-.32-1.01-.97,0-.97,1.48-1.98,2.38-1.98.79,0,1.26.79,1.98.79.47,0,.94-.36,1.33-.65l.04.11c-1.26.9-2.09,2.16-2.92,3.42l.68-.11c.36-.51.83-1.05,1.04-1.23l.04.04c-.32.29-.65.76-.9,1.19l.68-.11c.54-.72,2.81-3.35,3.75-3.35.18,0,.29.11.29.25,0,1.12-2.31,2.92-3.42,3.1-.4.54-1.44,1.84-1.44,2.52,0,.36.32.51.61.51,1.33,0,2.67-1.62,2.67-2.27,0-.29-.14-.47-.4-.47-.58,0-1.26.68-1.59,1.08h-.11c.4-.47,1.05-1.19,1.69-1.19.36,0,.51.25.51.61,0,1.08-1.69,2.34-2.67,2.34-.68,0-.94-.36-.94-.94,0-.68.61-1.55.97-2.09l-.65.11c-.22.29-.47.68-.65,1.12h-.29ZM10.45,36.8c-.61,0-2.74,2.74-3.06,3.14,1.19-.25,3.24-2.16,3.24-3.03,0-.07-.07-.11-.18-.11"/>
      <path class="cls-1" d="M13.08,41.52c-.14.11-.43.29-.68.29-.22,0-.36-.07-.47-.18-.86,1.08-1.59,1.55-2.31,1.55-.25,0-.54-.22-.54-.54,0-.86,1.66-2.45,2.63-2.45.18,0,.32.07.36.22.04-.04.07-.04.11-.04.14,0,.18.11.18.25,0,.33-.22.76-.4.94.14.11.29.14.43.14s.43-.11.65-.29l.04.11ZM11.96,40.47c0-.07-.07-.18-.22-.18-.4,0-1.12.87-2.09,1.98-.22.25-.25.4-.25.54,0,.11.07.25.33.25.61,0,1.48-.68,2.09-1.51-.07-.14-.11-.29-.11-.47,0-.25.11-.51.25-.61"/>
      <path class="cls-1" d="M15.82,38.49h.58l-1.15,1.23h.58l-.07.11h-.58l-2.23,2.42c-.4.43-.58.61-.58.72,0,.07.11.11.22.11.25,0,.79-.25,2.27-1.55l.07.07c-1.26,1.12-1.98,1.59-2.38,1.59-.22,0-.32-.14-.32-.36,0-.25.14-.58.65-1.15l1.69-1.84h-.58l.07-.11h.61l1.15-1.23Z"/>
      <path class="cls-1" d="M17.69,41.66c-.83.72-1.91,1.51-2.88,1.51-.29,0-.58-.11-.58-.43,0-.97,1.77-2.49,2.74-2.49.22,0,.4.18.4.4,0,.83-1.59,1.3-2.23,1.3-.54.58-.61.79-.61.9,0,.18.18.22.36.22.79,0,1.73-.65,2.81-1.51v.11ZM16.97,40.36c-.36,0-.83.43-1.77,1.48.97,0,1.95-.83,1.95-1.3,0-.11-.07-.18-.18-.18"/>
      <path class="cls-1" d="M20.14,41.77c-1.37,1.23-2.05,1.41-2.45,1.41-.36,0-.51-.22-.51-.54,0-1.08,4.54-5.91,5.48-5.91.18,0,.32.11.32.32,0,1.05-2.63,2.74-4,3.64,0,0-1.59,1.95-1.59,2.16,0,.14.11.22.22.22.5,0,1.19-.29,2.23-1.19l.29-.11ZM22.7,36.83c-.36,0-1.62,1.19-3.53,3.6h.04c1.73-1.23,3.68-2.49,3.68-3.39,0-.14-.07-.22-.18-.22"/>
      <path class="cls-1" d="M28.79,40.36c-.58.54-1.4,1.48-2.05,2.16-.14.18-.22.29-.22.36,0,.14.11.18.22.18.54,0,1.91-1.08,2.34-1.55l.11.07c-.47.47-1.8,1.59-2.49,1.59-.25,0-.4-.18-.4-.36,0-.15.04-.25.11-.36h-.04c-.51.47-.97.72-1.33.72s-.58-.22-.58-.58c0-1.12,1.98-2.34,2.7-2.34.29,0,.54.14.54.36,0,.07,0,.11-.04.22h.04l.47-.47h.61ZM27.28,40.36c-.4,0-.72.18-2.23,1.77-.36.4-.36.58-.36.68,0,.14.11.25.36.25.83,0,2.56-1.91,2.56-2.38,0-.22-.18-.32-.32-.32"/>
      <path class="cls-1" d="M30.2,40.36h.54l-.79.83.04.04c.43-.4,1.12-.94,1.51-.94.32,0,.54.22.54.54,0,.72-1.51,1.8-1.51,2.13,0,.07.04.11.15.11.29,0,.86-.43,2.13-1.55v.11c-.97.9-1.77,1.55-2.13,1.55-.22,0-.36-.11-.36-.4,0-.68,1.51-1.77,1.51-2.13,0-.14-.11-.25-.29-.25-.54,0-1.98,1.23-3.21,2.63h-.61l2.49-2.67Z"/>
      <path class="cls-1" d="M38.38,37.7h.65l-4.54,4.72c-.29.29-.36.43-.36.51,0,.11.07.14.25.14.51,0,1.15-.43,2.38-1.55l.04.07c-1.3,1.19-1.84,1.59-2.49,1.59-.14,0-.4-.07-.4-.32,0-.14,0-.25.07-.36-.4.4-.86.68-1.26.68-.43,0-.54-.29-.54-.58,0-.97,1.66-2.31,2.63-2.31.32,0,.58.11.58.36,0,.11-.04.18-.07.29l3.06-3.24ZM34.96,40.4c-.43,0-1.77,1.12-2.27,1.8-.25.36-.29.47-.29.58,0,.18.14.29.36.29.72,0,2.52-1.95,2.52-2.38,0-.18-.14-.29-.32-.29"/>
      <path class="cls-1" d="M43.68,37.52c0,1.23-1.19,2.67-2.41,2.67-.51,0-.79-.36-.79-.83,0-1.37,2.31-2.78,4.43-2.78.58,0,1.12.11,1.4.25.22-.11.43-.18.61-.22l.04.07c-.18.07-.36.14-.51.18.47.25.83.65.83,1.19,0,.94-1.12,1.51-1.91,1.66.07.14.11.25.11.4,0,.61-1.37,1.58-1.37,2.41,0,.4.36.54.68.54.79,0,2.23-1.33,2.23-2.13,0-.25-.22-.43-.47-.43-.36,0-.79.43-1.01.68l-.11-.04c.25-.29.68-.76,1.12-.76.29,0,.58.18.58.58,0,.94-1.26,2.2-2.34,2.2-.58,0-1.01-.4-1.01-1.01,0-.94,1.41-1.77,1.41-2.45-.11.04-.29.07-.51.07-.32,0-.58-.22-.58-.47h-.04c-1.08,1.51-2.45,3.86-4.61,3.86-.65,0-1.08-.29-1.08-.72,0-.29.25-.47.43-.47.25,0,.43.18.43.43,0,.32-.47.29-.47.36,0,.14.33.29.72.29,2.34,0,4.11-5.26,6.67-6.16-.36-.18-.94-.22-1.19-.22-2.45,0-4.4,1.59-4.4,2.59,0,.43.22.79.68.79.83,0,2.31-1.44,2.31-2.56h.11ZM46.31,36.94c-.58.36-1.19.86-2.16,2.23l.04.04c.07-.07.22-.07.36-.07.22,0,.61.11.79.47.72-.18,1.51-.97,1.51-1.69,0-.5-.25-.79-.54-.97M45.19,39.64c-.07-.29-.4-.4-.69-.4-.18,0-.29.04-.29.14s.18.29.51.29c.18,0,.36,0,.47-.04"/>
      <path class="cls-1" d="M50.63,41.66c-.83.72-2.05,1.51-2.99,1.51-.29,0-.58-.11-.58-.43,0-.97,1.77-2.49,2.74-2.49.22,0,.4.18.4.4,0,.83-1.59,1.3-2.23,1.3-.54.58-.61.79-.61.9,0,.18.18.22.36.22.79,0,1.87-.65,2.92-1.51v.11ZM49.8,40.36c-.36,0-.83.43-1.77,1.48.97,0,1.95-.83,1.95-1.3,0-.11-.07-.18-.18-.18"/>
      <path class="cls-1" d="M56.83,41.52c-.18.11-.43.29-.72.29-.22,0-.32-.07-.47-.18-.86,1.08-1.59,1.55-2.27,1.55-.29,0-.58-.22-.58-.54,0-.86,1.69-2.45,2.63-2.45.18,0,.32.07.4.22.04-.04.07-.04.11-.04.11,0,.18.11.18.25,0,.33-.25.76-.4.94.11.11.25.14.4.14.18,0,.47-.11.65-.29l.07.11ZM55.71,40.47c-.04-.07-.11-.18-.22-.18-.4,0-1.12.87-2.09,1.98-.22.25-.29.4-.29.54,0,.11.11.25.36.25.61,0,1.48-.68,2.09-1.51-.07-.14-.11-.29-.11-.47,0-.25.11-.51.25-.61"/>
      <path class="cls-1" d="M57.73,40.36h.61l-1.15,1.26c.29-.22.65-.36,1.12-.5.07-.4.54-.83.76-.83.15,0,.22.04.22.18,0,.32-.58.65-.86.72,0,.25.11.47.32.47.18,0,1.55-.65,1.62-.72l.04.07c-.07.07-1.51.76-1.66.76-.25,0-.43-.22-.43-.54-.76.18-1.3.58-1.8,1.15l-.54.65h-.58l2.34-2.67Z"/>
      <path class="cls-1" d="M62.2,38.49h.61l-1.15,1.23h.54l-.07.11h-.58l-2.23,2.42c-.36.43-.54.61-.54.72,0,.07.11.11.18.11.29,0,1.23-.18,2.7-1.48l-.04.07c-1.15,1.15-2.27,1.51-2.7,1.51-.22,0-.32-.14-.32-.36,0-.25.18-.58.68-1.15l1.69-1.84h-.61l.11-.11h.58l1.15-1.23Z"/>
      <path class="cls-1" d="M1.12,25.88H0v-.29h6.2l.07,2.27h-.29c-.18-.72-.32-1.51-1.08-1.84-.25-.11-.68-.14-1.15-.14h-1.19v3.21c1.05,0,1.62-.18,1.69-1.37h.29v3.14h-.29c-.11-1.26-.5-1.51-1.69-1.48v3.39h1.08v.29H0v-.29h1.12v-6.88Z"/>
      <path class="cls-1" d="M6.41,30.13c0-1.37,1.19-2.74,2.6-2.74s2.59,1.37,2.59,2.74c0,1.51-.94,3.06-2.59,3.06s-2.6-1.55-2.6-3.06M10.38,29.26c0-.32-.04-.58-.14-.83-.14-.5-.51-.86-1.22-.86-.76,0-1.12.36-1.26.86-.07.25-.11.51-.11.83v1.8c0,.32,0,.65.07.94.18.58.51.97,1.3.97s1.12-.4,1.26-.97c.07-.29.11-.61.11-.94v-1.8Z"/>
      <path class="cls-1" d="M18.02,27.5v.22h-.83v3.5c0,.83-.18,1.22-.5,1.55-.36.29-.87.43-1.62.43-.58,0-1.12-.18-1.48-.47-.36-.25-.5-.79-.5-1.73v-3.28h-.83v-.22h2.7v.22h-.83v3.03c0,1.15-.11,2.16,1.4,2.16.97,0,1.37-.61,1.37-1.51v-3.68h-.79v-.22h1.91Z"/>
      <path class="cls-1" d="M20.51,32.83h.83v.22h-2.7v-.22h.83v-5.12h-.83v-.22h2.77c.9,0,1.98.11,1.98,1.26,0,.94-.97,1.26-1.77,1.37,1.3.22,1.59.9,1.59,2.27,0,.29.04.61.83.47v.18c-.22.07-.47.11-.68.11-.86,0-1.3-.43-1.3-1.26,0-.68-.11-1.22-.33-1.41-.25-.18-.5-.29-.76-.29h-.47v2.63ZM20.51,29.98h.68c.76,0,1.04-.36,1.04-1.12,0-.9-.25-1.15-1.01-1.15h-.72v2.27Z"/>
      <path class="cls-1" d="M27.53,33.12h-.18v-2.23h.32c.22,1.08.86,2.05,2.05,2.05.86,0,1.66-.65,1.66-1.55,0-1.04-.94-1.26-1.77-1.55-.22-.07-.43-.14-.68-.22-1.01-.32-1.55-1.08-1.55-2.16,0-1.15.86-2.02,2.05-2.02.65,0,1.12.14,1.62.54l.43-.43h.18v2.09h-.36c-.11-1.04-.79-1.95-1.91-1.95-.72,0-1.41.54-1.41,1.3,0,.86.61.94,1.3,1.12.29.07.5.18.68.22.22.07.5.14.76.25.94.47,1.26,1.19,1.26,2.2,0,1.41-.9,2.45-2.34,2.45-.54,0-1.23-.22-1.59-.58l-.54.47Z"/>
      <path class="cls-1" d="M34.96,27.71v2.38c.79,0,1.22-.11,1.26-1.01h.22v2.31h-.22c-.07-.9-.36-1.12-1.26-1.08v2.52h1.15c1.08,0,1.33-.61,1.51-1.55h.22l-.07,1.77h-4.72v-.22h.83v-5.12h-.83v-.22h4.61l.04,1.51h-.22c-.18-.79-.51-1.12-.94-1.23-.22-.07-.43-.07-.72-.07h-.86Z"/>
      <path class="cls-1" d="M38.45,33.05v-.22h.68l1.98-5.44h.29l1.87,5.44h.68v.22h-2.63v-.22h.86l-.5-1.44h-1.8l-.51,1.44h.83v.22h-1.76ZM39.97,31.17h1.62l-.76-2.34-.86,2.34Z"/>
      <path class="cls-1" d="M44.83,33.12h-.14v-1.66h.22c.18.79.65,1.51,1.55,1.51.65,0,1.23-.51,1.23-1.15,0-.79-.68-.94-1.3-1.15-.18-.07-.36-.11-.51-.18-.79-.22-1.15-.79-1.15-1.58,0-.87.65-1.51,1.51-1.51.47,0,.83.11,1.19.4l.32-.32h.14v1.59h-.25c-.11-.79-.61-1.48-1.44-1.48-.54,0-1.04.4-1.04.97,0,.61.47.68.97.83.22.07.36.11.5.18.18.04.4.11.58.18.68.32.94.86.94,1.62,0,1.05-.68,1.84-1.76,1.84-.4,0-.9-.18-1.19-.43l-.36.36Z"/>
      <path class="cls-1" d="M49.26,30.13c0-1.37,1.19-2.74,2.6-2.74s2.56,1.37,2.56,2.74c0,1.51-.94,3.06-2.56,3.06s-2.6-1.55-2.6-3.06M53.19,29.26c0-.32-.04-.58-.11-.83-.18-.5-.51-.86-1.22-.86-.76,0-1.12.36-1.26.86-.07.25-.11.51-.11.83v1.8c0,.32,0,.65.07.94.14.58.51.97,1.3.97s1.12-.4,1.26-.97c.07-.29.07-.61.07-.94v-1.8Z"/>
      <polygon class="cls-1" points="59.93 33.16 59.68 33.16 56.18 27.89 56.18 32.83 56.98 32.83 56.98 33.05 55.1 33.05 55.1 32.83 55.9 32.83 55.9 27.71 55.1 27.71 55.1 27.5 57.23 27.5 59.68 31.14 59.68 27.71 58.89 27.71 58.89 27.5 60.76 27.5 60.76 27.71 59.93 27.71 59.93 33.16"/>
      <path class="cls-1" d="M61.77,33.12h-.14v-1.66h.25c.18.79.65,1.51,1.51,1.51.65,0,1.26-.51,1.26-1.15,0-.79-.72-.94-1.33-1.15-.15-.07-.33-.11-.51-.18-.76-.22-1.15-.79-1.15-1.58,0-.87.65-1.51,1.51-1.51.51,0,.83.11,1.23.4l.32-.32h.14v1.59h-.29c-.07-.79-.58-1.48-1.41-1.48-.54,0-1.04.4-1.04.97,0,.61.43.68.94.83.22.07.4.11.54.18.14.04.36.11.54.18.68.32.94.86.94,1.62,0,1.05-.68,1.84-1.73,1.84-.4,0-.9-.18-1.19-.43l-.4.36Z"/>
      <path class="cls-1" d="M37.95,15.35c.14,0,.25-.14.25-.25,0-.14-.11-.29-.25-.29s-.25.14-.25.29c0,.11.11.25.25.25"/>
      <polygon class="cls-1" points="37.62 14.78 37.84 14.85 37.95 14.63 38.02 14.85 38.27 14.78 38.16 14.99 38.38 15.1 38.16 15.17 38.27 15.42 38.02 15.32 37.95 15.53 37.84 15.32 37.62 15.42 37.7 15.17 37.48 15.1 37.7 14.99 37.62 14.78"/>
      <path class="cls-1" d="M31.46,3.89c.4.04.72.22.76.72-.47-.04-.68-.32-.76-.72"/>
      <path class="cls-1" d="M31.46,3.14c.4.04.72.22.79.69-.51,0-.72-.29-.79-.69"/>
      <path class="cls-1" d="M31.5,2.34c.4.04.68.22.76.72-.47-.04-.68-.32-.76-.72"/>
      <path class="cls-1" d="M31.5,1.59c.4.04.72.22.76.69-.47,0-.68-.29-.76-.69"/>
      <path class="cls-1" d="M31.5.79c.4.04.72.25.79.72-.51-.04-.72-.32-.79-.72"/>
      <path class="cls-1" d="M31.53.04c.4.04.68.22.76.69-.47,0-.68-.29-.76-.69"/>
      <path class="cls-1" d="M31.28,21.51h2.13v-.07l-.68-.32L32.36.04s0-.04-.04-.04v.04l-.36,21.08-.68.32v.07Z"/>
      <path class="cls-1" d="M37.26,6.78c-.07.43-.29.72-.76.72.04-.47.36-.68.76-.72"/>
      <path class="cls-1" d="M37.3,7.5c-.07.4-.29.69-.76.69.04-.47.36-.65.76-.69"/>
      <path class="cls-1" d="M34.85,6.74c-.47,0-.69-.29-.76-.68.4.04.72.22.76.68"/>
      <path class="cls-1" d="M33.55,9.01c-.51,0-.72-.29-.79-.68.43.04.72.22.79.68"/>
      <path class="cls-1" d="M38.7,11.17c-.4.04-.72.22-.79.69.51,0,.72-.29.79-.69"/>
      <path class="cls-1" d="M38.06,13.95c.43.04.76.22.79.69-.51,0-.72-.29-.79-.69"/>
      <path class="cls-1" d="M38.92,12.94c-.43-.04-.76-.22-.76-.72.51.04.72.32.76.72"/>
      <path class="cls-1" d="M25.91,15.32c-.07-.07-.07-.14-.07-.14l-.14-4.11c0-.07-.04-.11-.04-.11-.04,0-.04.04-.04.11l-.18,4.36s0,.11.07.14l6.81,4v-.97l-6.41-3.28Z"/>
      <path class="cls-1" d="M38.74,15.32c.11-.07.11-.14.11-.14l.14-4.11c0-.07,0-.11.04-.11,0,0,.04.04.04.11l.15,4.36s.04.11-.04.14l-6.85,4v-.97l6.42-3.28Z"/>
      <path class="cls-1" d="M27.1,12.36c-.07-.04-.07-.07-.07-.07l-.11-3.46s0-.07-.04-.07c0,0-.04.04-.04.07l-.11,3.64s-.04.07.04.11l5.55,3.28v-.79l-5.23-2.7Z"/>
      <path class="cls-1" d="M37.55,12.36c.07-.04.07-.07.07-.07l.14-3.46v-.07s.04.04.04.07l.14,3.64s0,.07-.04.11l-5.59,3.28v-.79l5.23-2.7Z"/>
      <path class="cls-1" d="M28.4,9.44c-.07-.04-.07-.07-.07-.07l-.07-2.6-.04-.04-.04.04-.07,2.81s0,.07.04.11l4.18,2.49v-.68l-3.93-2.05Z"/>
      <path class="cls-1" d="M36.29,9.44s.04-.07.04-.07l.11-2.6v-.04s.04.04.04.04l.11,2.81s0,.07-.04.11l-4.22,2.49v-.68l3.96-2.05Z"/>
      <path class="cls-1" d="M29.59,6.63s-.04-.04-.04-.04l-.07-1.84s-.04-.04-.04-.04v.04l-.11,1.98s0,.07.04.07l2.95,1.77v-.51l-2.74-1.44Z"/>
      <path class="cls-1" d="M30.56,4.29v-.04l-.07-1.15s0-.04-.04-.04v.04l-.07,1.3s0,.04.04.04l1.91,1.12v-.32l-1.77-.94Z"/>
      <path class="cls-1" d="M34.09,4.29s.04-.04.04-.04l.07-1.15v-.04.04l.07,1.3v.04l-1.95,1.12v-.32l1.77-.94Z"/>
      <path class="cls-1" d="M35.1,6.63s.04-.04.04-.04l.07-1.84v-.04s.04,0,.04.04l.07,1.98s0,.07-.04.07l-2.96,1.77v-.51l2.78-1.44Z"/>
      <path class="cls-1" d="M34.24,3.75c.5,0,.72-.29.79-.68-.4,0-.72.22-.79.68"/>
      <path class="cls-1" d="M34.2,3.06c.5,0,.72-.29.79-.68-.4.04-.72.22-.79.68"/>
      <path class="cls-1" d="M34.16,3.46c-.47,0-.69-.32-.76-.72.4.04.72.25.76.72"/>
      <path class="cls-1" d="M34.13,4.14c-.47-.04-.69-.32-.76-.72.4.04.72.22.76.72"/>
      <path class="cls-1" d="M36.04,4.76c-.07.43-.29.72-.76.72.04-.47.36-.68.76-.72"/>
      <path class="cls-1" d="M36,4.04c-.4.04-.72.25-.76.72.47,0,.68-.29.76-.72"/>
      <path class="cls-1" d="M27.42,6.09c.4.04.72.22.79.72-.51-.04-.72-.32-.79-.72"/>
      <path class="cls-1" d="M27.42,6.78c.07.43.29.72.76.72-.04-.47-.36-.68-.76-.72"/>
      <path class="cls-1" d="M27.39,7.5c.07.4.29.69.76.69-.04-.47-.36-.65-.76-.69"/>
      <path class="cls-1" d="M27.35,8.18c.07.43.29.72.79.72-.07-.47-.36-.68-.79-.72"/>
      <path class="cls-1" d="M28.11,9.59c-.47,0-.69-.29-.76-.68.4.04.72.22.76.68"/>
      <path class="cls-1" d="M29.37,6.74c-.51,0-.72-.29-.79-.68.43.04.72.22.79.68"/>
      <path class="cls-1" d="M29.08,8c-.4.04-.72.25-.76.72.47,0,.68-.29.76-.72"/>
      <path class="cls-1" d="M28.36,9.41c.47-.04.68-.32.76-.72-.4.04-.72.22-.76.72"/>
      <path class="cls-1" d="M29.66,9.01c-.07.4-.29.69-.76.69.04-.47.36-.65.76-.69"/>
      <path class="cls-1" d="M30.24,9.3c-.07.4-.29.69-.76.69.04-.47.36-.65.76-.69"/>
      <path class="cls-1" d="M30.81,9.59c-.07.4-.29.69-.79.69.07-.47.4-.65.79-.69"/>
      <path class="cls-1" d="M31.39,9.87c-.07.4-.32.69-.79.72.07-.51.36-.68.79-.72"/>
      <path class="cls-1" d="M31.17,10.88c.47-.04.68-.32.76-.72-.4.04-.72.22-.76.72"/>
      <path class="cls-1" d="M29.55,6.6c.5,0,.72-.29.79-.68-.43.04-.72.22-.79.68"/>
      <path class="cls-1" d="M30.88,6.2c-.07.4-.29.69-.76.72.04-.51.36-.68.76-.72"/>
      <path class="cls-1" d="M31.46,6.49c-.07.4-.29.69-.76.72.04-.51.36-.68.76-.72"/>
      <path class="cls-1" d="M32.04,6.78c-.07.4-.29.72-.79.72.07-.47.4-.68.79-.72"/>
      <path class="cls-1" d="M28.51,9.91c-.07.4-.32.69-.79.69.07-.47.36-.65.79-.69"/>
      <path class="cls-1" d="M28.25,10.92c.07-.47.36-.68.79-.72-.07.43-.33.72-.79.72"/>
      <path class="cls-1" d="M28.79,11.24c.07-.47.36-.68.79-.72-.07.43-.32.72-.79.72"/>
      <path class="cls-1" d="M29.33,11.57c.07-.5.36-.68.79-.72-.07.4-.32.68-.79.72"/>
      <path class="cls-1" d="M30.42,12.18c.07-.47.36-.65.79-.68-.07.4-.33.68-.79.68"/>
      <path class="cls-1" d="M29.73,7.03c-.07.4-.29.69-.79.72.07-.51.36-.68.79-.72"/>
      <path class="cls-1" d="M29.48,8.04c.07-.47.4-.65.79-.68-.07.4-.29.68-.79.68"/>
      <path class="cls-1" d="M30.06,8.36c.04-.47.36-.65.76-.68-.07.4-.29.68-.76.68"/>
      <path class="cls-1" d="M30.6,8.69c.04-.47.36-.65.76-.68-.07.4-.29.68-.76.68"/>
      <path class="cls-1" d="M31.14,9.01c.47,0,.68-.29.76-.68-.4.04-.72.22-.76.68"/>
      <path class="cls-1" d="M30.74,4.61c-.07.4-.32.69-.79.72.07-.51.36-.68.79-.72"/>
      <path class="cls-1" d="M30.52,5.62c.04-.47.36-.65.76-.68-.07.4-.29.68-.76.68"/>
      <path class="cls-1" d="M31.06,5.95c.04-.47.36-.65.76-.68-.07.4-.29.68-.76.68"/>
      <path class="cls-1" d="M30.38,4.4c-.47,0-.69-.29-.76-.68.4.04.72.22.76.68"/>
      <path class="cls-1" d="M30.42,3.75c-.47,0-.69-.29-.76-.68.4,0,.72.22.76.68"/>
      <path class="cls-1" d="M30.45,3.06c-.47,0-.69-.29-.76-.68.4.04.72.22.76.68"/>
      <path class="cls-1" d="M30.49,3.42c.5,0,.72-.29.79-.72-.4.04-.72.25-.79.72"/>
      <path class="cls-1" d="M30.56,4.14c.47-.04.68-.32.76-.72-.4.04-.72.22-.76.72"/>
      <path class="cls-1" d="M28.61,5.37c.07.4.29.69.76.72-.04-.51-.36-.68-.76-.72"/>
      <path class="cls-1" d="M28.65,4.72c.07.4.29.69.76.69-.04-.47-.36-.65-.76-.69"/>
      <path class="cls-1" d="M28.65,4.04c.43.04.72.25.79.72-.51,0-.72-.29-.79-.72"/>
      <path class="cls-1" d="M25.98,11.17c.4.04.72.22.76.69-.47,0-.68-.29-.76-.69"/>
      <path class="cls-1" d="M26.06,9.08c.4.04.72.25.76.72-.47,0-.68-.29-.76-.72"/>
      <path class="cls-1" d="M26.02,9.8c.4.04.72.22.79.72-.51-.04-.72-.32-.79-.72"/>
      <path class="cls-1" d="M34.6,11.86c.14,0,.25-.11.25-.25s-.11-.25-.25-.25-.29.11-.29.25.14.25.29.25"/>
      <polygon class="cls-1" points="34.27 11.28 34.49 11.35 34.6 11.14 34.67 11.35 34.92 11.28 34.81 11.5 35.03 11.6 34.81 11.68 34.92 11.93 34.67 11.82 34.6 12.04 34.49 11.82 34.27 11.93 34.34 11.68 34.13 11.6 34.34 11.5 34.27 11.28"/>
      <path class="cls-1" d="M33.73,13.84c.14,0,.25-.14.25-.29s-.11-.25-.25-.25-.25.11-.25.25.11.29.25.29"/>
      <polygon class="cls-1" points="33.41 13.23 33.66 13.33 33.73 13.12 33.84 13.33 34.06 13.23 33.98 13.48 34.2 13.55 33.98 13.66 34.06 13.88 33.84 13.8 33.73 14.02 33.66 13.8 33.41 13.88 33.52 13.66 33.3 13.55 33.52 13.48 33.41 13.23"/>
      <path class="cls-1" d="M35.39,15.93c.14,0,.25-.14.25-.29s-.11-.25-.25-.25-.25.11-.25.25.11.29.25.29"/>
      <polygon class="cls-1" points="35.06 15.32 35.28 15.42 35.39 15.21 35.5 15.42 35.71 15.32 35.61 15.57 35.86 15.64 35.61 15.75 35.71 15.97 35.5 15.89 35.39 16.11 35.28 15.89 35.06 15.97 35.14 15.75 34.92 15.64 35.14 15.57 35.06 15.32"/>
      <path class="cls-1" d="M35.93,18.6c.14,0,.25-.14.25-.29,0-.11-.11-.25-.25-.25s-.25.14-.25.25c0,.14.11.29.25.29"/>
      <polygon class="cls-1" points="35.61 17.98 35.82 18.09 35.93 17.88 36.04 18.09 36.25 17.98 36.18 18.24 36.4 18.31 36.18 18.42 36.25 18.63 36.04 18.56 35.93 18.78 35.82 18.56 35.61 18.63 35.68 18.42 35.46 18.31 35.68 18.24 35.61 17.98"/>
      <path class="cls-1" d="M35.25,18.56c.07.4-.04.76-.47.94-.14-.47.07-.76.47-.94"/>
      <path class="cls-1" d="M38.31,17.44c-.43-.04-.76-.25-.76-.72.51,0,.72.32.76.72"/>
      <path class="cls-1" d="M34.38,15.82c-.43-.04-.76-.22-.79-.68.51,0,.72.29.79.68"/>
      <path class="cls-1" d="M37.66,11.39c-.47-.04-.69-.32-.76-.72.4.04.72.22.76.72"/>
      <path class="cls-1" d="M35.06,13.62c-.47,0-.72-.29-.79-.68.43.04.72.22.79.68"/>
      <path class="cls-1" d="M36.36,8.72c-.51,0-.72-.29-.79-.72.43.04.72.25.79.72"/>
      <path class="cls-1" d="M40.25,14.49c-.43-.04-.76-.22-.79-.72.51.04.72.32.79.72"/>
      <path class="cls-1" d="M35.64,11.32c.07.4-.04.76-.47.94-.14-.47.11-.76.47-.94"/>
      <path class="cls-1" d="M36.22,13.95c.07.4-.04.76-.47.94-.14-.47.11-.76.47-.94"/>
      <path class="cls-1" d="M34.27,17.55c-.47,0-.69-.29-.76-.72.4.04.72.25.76.72"/>
      <path class="cls-1" d="M37.41,20.51c0-.54.47-1.01,1.01-1.01s.97.47.97,1.01-.43,1.01-.97,1.01-1.01-.47-1.01-1.01M39.21,20.51c0-.43-.36-.79-.79-.79-.47,0-.83.36-.83.79,0,.47.36.79.83.79.43,0,.79-.32.79-.79M38.92,21.05h-.25l-.25-.47h-.22v.47h-.22v-1.08h.54c.07,0,.22,0,.29.07.11.04.11.14.11.25,0,.22-.07.29-.29.29l.29.47ZM38.52,20.43c.11,0,.22-.04.22-.14,0-.14-.18-.14-.25-.14h-.29v.29h.32Z"/>
      <path class="cls-1" d="M64.33,41.73c-.11.11-.86.65-1.58.94.07-.11.14-.18.22-.25.22-.25.32-.5.32-.86-.04-.4-.36-.65-.58-.97.14-.14.43-.43.43-.68,0-.07-.07-.14-.14-.14-.32,0-.47.36-.47.61,0,.07.07.22.07.22-.43.65-1.3,1.23-1.51,1.44-.07.07-.32.36-.32.65-.04.32.04.61.5.61.32,0,.83-.14,1.26-.43.94-.29,1.87-1.04,1.87-1.04l-.07-.07ZM61.16,43.17c-.29,0-.32-.25-.32-.47.04-.25.14-.43.29-.54.18-.22,1.04-.79,1.51-1.51,0,0,.25.43.25.65.07.86-1.19,1.8-1.73,1.87"/>
      <path class="cls-1" d="M53.37,41.7c-.11.07-.86.61-1.58.9.07-.07.14-.18.22-.25.22-.25.32-.5.32-.86-.04-.4-.36-.65-.58-.94.14-.18.43-.47.43-.68,0-.07-.07-.18-.14-.18-.32,0-.47.36-.47.61,0,.11.07.22.07.22-.43.65-1.3,1.26-1.51,1.44-.07.11-.32.4-.32.65-.04.32.04.61.5.61.32,0,.83-.14,1.26-.43.94-.29,1.87-1.04,1.87-1.04l-.07-.04ZM50.2,43.1c-.29.04-.32-.22-.32-.47.04-.22.14-.4.29-.54.18-.22,1.04-.79,1.51-1.51,0,0,.25.43.25.65.07.86-1.19,1.84-1.73,1.87"/>
      <path class="cls-1" d="M23.03,41.7c-.14.11-.86.65-1.62.9.07-.07.18-.14.22-.25.22-.25.36-.47.32-.86-.04-.4-.36-.65-.58-.94.14-.14.43-.43.43-.68,0-.07-.07-.14-.14-.14-.29,0-.43.36-.43.61,0,.07.04.22.04.22-.43.65-1.26,1.23-1.48,1.44-.11.07-.32.36-.36.65-.04.33.04.58.5.58.32,0,.83-.11,1.26-.43.94-.25,1.87-1.01,1.87-1.01l-.04-.07ZM19.82,43.1c-.29.04-.32-.22-.29-.47,0-.22.14-.4.25-.54.18-.22,1.04-.79,1.55-1.48,0,0,.22.4.22.65.07.86-1.15,1.8-1.73,1.84"/>
    </g>
  </g>
</svg>