<?xml version="1.0" encoding="UTF-8"?>
<svg id="Layer_2" xmlns="http://www.w3.org/2000/svg" viewBox="0 0 67.06 16.39">
  <defs>
    <style>
      .cls-1 {
        fill: #231f20;
      }
    </style>
  </defs>
  <g id="Layer_1-2" data-name="Layer_1">
    <g>
      <path class="cls-1" d="M24.98,3.43h3.34c0-1.14,0-2.29,0-3.43-.25.25-.5.51-.75.76-3.96,0-7.92-.01-11.87-.02v12.47c.88.8,1.76,1.59,2.64,2.39,3.03-.02,6.07-.04,9.1-.06,0-1.13.01-2.26.02-3.4h-7.82v-2.33h6.99v-3.2c-1.67,0-3.33.02-5,.02,1.12-1.07,2.24-2.14,3.36-3.2M19.63,6.63v-2.24h4.19c-.78.74-1.56,1.49-2.33,2.23-.62,0-1.24,0-1.86,0"/>
      <path class="cls-1" d="M66.07,5.15c-.26.02-.34-.09-.41-.33-.18-.56-.34-1.15-.65-1.65-.88-1.41-2.27-2.06-3.85-2.2-1.66-.14-3.34-.09-5.01-.11-.11,0-.25.07-.33.15-.71.7-1.42,1.41-2.12,2.12-.06.06-.15.14-.15.21-.01.59,0,1.18,0,1.81h1.29v1.8h-1.27v8.41c.4,0,.76-.02,1.12,0,.27.02.46-.07.65-.27.63-.65,1.27-1.3,1.93-1.92.23-.22.32-.44.3-.75-.02-.39,0-.79,0-1.21.45,0,.82.02,1.2,0,.84-.04,1.69-.04,2.52-.16,1.52-.24,2.86-.88,3.71-2.23.35-.56.56-1.21.86-1.89h1.22v-1.77c-.37,0-.68-.01-.99,0M62.92,6.97c-.44,0-.87.01-1.31.02-.16.18-.34.35-.56.5-1.32.95-2.96.63-3.48.51v-1.07h1.26v-1.8h-1.27v-1.02c.26-.1,1.89-.68,3.22.2.31.21.55.46.73.7l1.4.04.02,1.92Z"/>
      <path class="cls-1" d="M49.16,12.93c-.65,0-1.25.01-1.84,0-.3-.01-.41.08-.4.39.02.72,0,1.45,0,2.21-1.04,0-2.03,0-3.03,0-.07,0-.18-.07-.21-.13-.32-.79-.63-1.58-.97-2.43h2.25c-.1-.26-.18-.46-.25-.66-.32-.83-.65-1.66-.97-2.5-.09-.23-.21-.32-.46-.31-.51.02-1.01-.01-1.52.01-.3.02-.45-.07-.57-.37-.38-1.04-.79-2.06-1.19-3.08-.03-.08-.07-.16-.15-.34-.1.21-.16.35-.22.5-1.18,2.98-2.35,5.95-3.52,8.93-.11.28-.24.4-.56.39-.7-.03-1.4,0-2.1,0-.12,0-.25-.01-.41-.02,0-1.01-.04-2,.02-2.98.03-.39.29-.77.45-1.15,1.42-3.37,2.85-6.73,4.26-10.1.11-.25.23-.36.51-.35,1.06.02,2.13.02,3.19,0,.27,0,.39.1.48.33,1.1,2.63,2.22,5.25,3.32,7.88.12.28.25.4.57.39.53-.03,1.06-.02,1.6,0,.11,0,.27.06.31.14.47,1.06.92,2.14,1.4,3.26"/>
      <path class="cls-1" d="M4.64,1.02v.56c0,3.39,0,6.77,0,10.16,0,.18-.11.39-.22.53-.14.18-.35.31-.52.46.02.04.04.08.05.12.58,0,1.18.06,1.74-.03.25-.04.45-.4.69-.61.1-.09.23-.19.35-.2,1.63-.01,3.27,0,4.96,0,0,.7,0,1.38,0,2.06,0,.07-.09.15-.15.22q-1.11,1.21-2.74,1.21c-1.75,0-3.5,0-5.26,0-.33,0-.61.05-.81.33-.32.46-.76.61-1.31.54-.32-.04-.64,0-1.02-.09.26-.2.52-.4.79-.6-.03-.05-.06-.09-.1-.14-.13-.02-.26-.03-.44-.06v-.37c0-3.93,0-7.86,0-11.79,0-.28.07-.48.28-.68.47-.44.91-.93,1.39-1.36.15-.14.4-.23.6-.25.55-.03,1.11-.01,1.73-.01"/>
      <path class="cls-1" d="M1.77.64c-.6.6-1.19,1.17-1.77,1.75V.64h1.77Z"/>
    </g>
  </g>
</svg>