<?xml version="1.0" encoding="UTF-8"?>
<svg id="Layer_2" xmlns="http://www.w3.org/2000/svg" xmlns:xlink="http://www.w3.org/1999/xlink" viewBox="0 0 94.11 34.04">
  <defs>
    <style>
      .cls-1 {
        fill: none;
      }

      .cls-2 {
        fill: #262e6b;
      }

      .cls-3 {
        fill: url(#linear-gradient-8);
      }

      .cls-4 {
        fill: url(#linear-gradient-7);
      }

      .cls-5 {
        fill: url(#linear-gradient-5);
      }

      .cls-6 {
        fill: url(#linear-gradient-6);
      }

      .cls-7 {
        fill: url(#linear-gradient-9);
      }

      .cls-8 {
        fill: url(#linear-gradient-4);
      }

      .cls-9 {
        fill: url(#linear-gradient-3);
      }

      .cls-10 {
        fill: url(#linear-gradient-2);
      }

      .cls-11 {
        fill: url(#linear-gradient);
      }

      .cls-12 {
        clip-path: url(#clippath-17);
      }

      .cls-13 {
        clip-path: url(#clippath-19);
      }

      .cls-14 {
        clip-path: url(#clippath-11);
      }

      .cls-15 {
        clip-path: url(#clippath-16);
      }

      .cls-16 {
        clip-path: url(#clippath-18);
      }

      .cls-17 {
        clip-path: url(#clippath-10);
      }

      .cls-18 {
        clip-path: url(#clippath-15);
      }

      .cls-19 {
        clip-path: url(#clippath-13);
      }

      .cls-20 {
        clip-path: url(#clippath-14);
      }

      .cls-21 {
        clip-path: url(#clippath-12);
      }

      .cls-22 {
        clip-path: url(#clippath-27);
      }

      .cls-23 {
        clip-path: url(#clippath-26);
      }

      .cls-24 {
        clip-path: url(#clippath-28);
      }

      .cls-25 {
        clip-path: url(#clippath-20);
      }

      .cls-26 {
        clip-path: url(#clippath-21);
      }

      .cls-27 {
        clip-path: url(#clippath-22);
      }

      .cls-28 {
        clip-path: url(#clippath-23);
      }

      .cls-29 {
        clip-path: url(#clippath-24);
      }

      .cls-30 {
        clip-path: url(#clippath-25);
      }

      .cls-31 {
        clip-path: url(#clippath-1);
      }

      .cls-32 {
        clip-path: url(#clippath-3);
      }

      .cls-33 {
        clip-path: url(#clippath-4);
      }

      .cls-34 {
        clip-path: url(#clippath-2);
      }

      .cls-35 {
        clip-path: url(#clippath-7);
      }

      .cls-36 {
        clip-path: url(#clippath-6);
      }

      .cls-37 {
        clip-path: url(#clippath-9);
      }

      .cls-38 {
        clip-path: url(#clippath-8);
      }

      .cls-39 {
        clip-path: url(#clippath-5);
      }

      .cls-40 {
        fill: url(#linear-gradient-10);
      }

      .cls-41 {
        fill: url(#linear-gradient-11);
      }

      .cls-42 {
        fill: url(#linear-gradient-12);
      }

      .cls-43 {
        fill: url(#linear-gradient-13);
      }

      .cls-44 {
        fill: url(#linear-gradient-19);
      }

      .cls-45 {
        fill: url(#linear-gradient-14);
      }

      .cls-46 {
        fill: url(#linear-gradient-21);
      }

      .cls-47 {
        fill: url(#linear-gradient-20);
      }

      .cls-48 {
        fill: url(#linear-gradient-22);
      }

      .cls-49 {
        fill: url(#linear-gradient-23);
      }

      .cls-50 {
        fill: url(#linear-gradient-28);
      }

      .cls-51 {
        fill: url(#linear-gradient-25);
      }

      .cls-52 {
        fill: url(#linear-gradient-15);
      }

      .cls-53 {
        fill: url(#linear-gradient-16);
      }

      .cls-54 {
        fill: url(#linear-gradient-17);
      }

      .cls-55 {
        fill: url(#linear-gradient-18);
      }

      .cls-56 {
        fill: url(#linear-gradient-27);
      }

      .cls-57 {
        fill: url(#linear-gradient-24);
      }

      .cls-58 {
        fill: url(#linear-gradient-26);
      }

      .cls-59 {
        fill: url(#linear-gradient-29);
      }

      .cls-60 {
        clip-path: url(#clippath);
      }
    </style>
    <clipPath id="clippath">
      <polygon class="cls-1" points="18.93 10.06 19.37 10.04 19.24 9.8 18.93 10.06"/>
    </clipPath>
    <linearGradient id="linear-gradient" x1="-373.26" y1="918.67" x2="-372.26" y2="918.67" gradientTransform="translate(10000.31 -24584.1) scale(26.77)" gradientUnits="userSpaceOnUse">
      <stop offset="0" stop-color="#40b449"/>
      <stop offset=".4" stop-color="#0199b9"/>
      <stop offset=".49" stop-color="#0681aa"/>
      <stop offset=".73" stop-color="#074f8a"/>
      <stop offset=".9" stop-color="#253673"/>
      <stop offset="1" stop-color="#262e6b"/>
    </linearGradient>
    <clipPath id="clippath-1">
      <polygon class="cls-1" points="6.16 1.33 17.13 6.24 20.99 5.77 6.95 .68 6.16 1.33"/>
    </clipPath>
    <linearGradient id="linear-gradient-2" x1="-373.26" y1="918.67" x2="-372.26" y2="918.67" gradientTransform="translate(54586.76 22144.7) rotate(90) scale(59.4)" gradientUnits="userSpaceOnUse">
      <stop offset="0" stop-color="#40b449"/>
      <stop offset=".04" stop-color="#3eb44a"/>
      <stop offset=".1" stop-color="#35b34a"/>
      <stop offset=".17" stop-color="#28b24b"/>
      <stop offset=".24" stop-color="#12ac5c"/>
      <stop offset=".32" stop-color="#04a28d"/>
      <stop offset=".38" stop-color="#0199b9"/>
      <stop offset="1" stop-color="#262e6b"/>
    </linearGradient>
    <clipPath id="clippath-2">
      <polygon class="cls-1" points="4.5 .59 6.16 1.33 6.95 .68 5.09 0 4.5 .59"/>
    </clipPath>
    <linearGradient id="linear-gradient-3" y1="918.67" y2="918.67" gradientTransform="translate(54578.8 22149.3) rotate(90) scale(59.4)" xlink:href="#linear-gradient-2"/>
    <clipPath id="clippath-3">
      <polygon class="cls-1" points="8.13 7.33 8.4 8.44 11.17 8.33 9.91 7.12 8.13 7.33"/>
    </clipPath>
    <linearGradient id="linear-gradient-4" x1="-373.26" y1="918.67" x2="-372.26" y2="918.67" gradientTransform="translate(18515.44 -45611.32) scale(49.66)" gradientUnits="userSpaceOnUse">
      <stop offset="0" stop-color="#40b449"/>
      <stop offset=".4" stop-color="#0199b9"/>
      <stop offset=".52" stop-color="#0983aa"/>
      <stop offset=".78" stop-color="#0e4c88"/>
      <stop offset=".95" stop-color="#262e6b"/>
      <stop offset="1" stop-color="#262e6b"/>
    </linearGradient>
    <clipPath id="clippath-4">
      <polygon class="cls-1" points="11.6 6.91 13.05 8.26 20.93 7.94 17.13 6.24 11.6 6.91"/>
    </clipPath>
    <linearGradient id="linear-gradient-5" y1="918.67" y2="918.67" gradientTransform="translate(18516.1 -45611.76) scale(49.66)" xlink:href="#linear-gradient-4"/>
    <clipPath id="clippath-5">
      <polygon class="cls-1" points="0 8.32 .26 8.77 7.08 8.5 6.86 7.49 0 8.32"/>
    </clipPath>
    <linearGradient id="linear-gradient-6" y1="918.67" y2="918.67" gradientTransform="translate(18515.19 -45610.89) scale(49.66)" xlink:href="#linear-gradient-4"/>
    <clipPath id="clippath-6">
      <polygon class="cls-1" points="17.13 6.24 20.93 7.94 20.99 5.77 17.13 6.24"/>
    </clipPath>
    <linearGradient id="linear-gradient-7" y1="918.67" y2="918.67" gradientTransform="translate(18516.19 -45612.16) scale(49.66)" xlink:href="#linear-gradient-4"/>
    <clipPath id="clippath-7">
      <polygon class="cls-1" points="6.01 3.36 6.86 7.49 8.13 7.33 7.5 4.79 6.01 3.36"/>
    </clipPath>
    <linearGradient id="linear-gradient-8" x1="-373.26" y1="918.67" x2="-372.26" y2="918.67" gradientTransform="translate(64852.19 26323.72) rotate(90) scale(70.59)" gradientUnits="userSpaceOnUse">
      <stop offset="0" stop-color="#0199b9"/>
      <stop offset=".17" stop-color="#0199b9"/>
      <stop offset=".29" stop-color="#0093b5"/>
      <stop offset=".46" stop-color="#0681aa"/>
      <stop offset=".66" stop-color="#046598"/>
      <stop offset=".87" stop-color="#20407e"/>
      <stop offset="1" stop-color="#262e6b"/>
    </linearGradient>
    <clipPath id="clippath-8">
      <polygon class="cls-1" points="7.08 8.5 10.93 27.09 14.61 33.4 8.4 8.44 7.08 8.5"/>
    </clipPath>
    <linearGradient id="linear-gradient-9" y1="918.67" y2="918.67" gradientTransform="translate(64855.89 26323.99) rotate(90) scale(70.59)" xlink:href="#linear-gradient-8"/>
    <clipPath id="clippath-9">
      <polygon class="cls-1" points="6.86 7.49 7.08 8.5 8.4 8.44 8.13 7.33 6.86 7.49"/>
    </clipPath>
    <linearGradient id="linear-gradient-10" y1="918.67" y2="918.67" gradientTransform="translate(64852.64 26324.03) rotate(90) scale(70.59)" xlink:href="#linear-gradient-8"/>
    <clipPath id="clippath-10">
      <polygon class="cls-1" points="10.93 27.09 12.38 34.04 14.61 33.4 10.93 27.09"/>
    </clipPath>
    <linearGradient id="linear-gradient-11" y1="918.67" y2="918.67" gradientTransform="translate(64857.73 26324.52) rotate(90) scale(70.59)" xlink:href="#linear-gradient-8"/>
    <clipPath id="clippath-11">
      <polygon class="cls-1" points="11.17 8.33 28.38 24.93 30.11 24.05 13.05 8.26 11.17 8.33"/>
    </clipPath>
    <linearGradient id="linear-gradient-12" x1="-373.26" y1="918.67" x2="-372.26" y2="918.67" gradientTransform="translate(-73953.4 -30015.76) rotate(-90) scale(80.52)" gradientUnits="userSpaceOnUse">
      <stop offset="0" stop-color="#40b449"/>
      <stop offset=".34" stop-color="#0199b9"/>
      <stop offset="1" stop-color="#262e6b"/>
    </linearGradient>
    <clipPath id="clippath-12">
      <polygon class="cls-1" points="6.96 2.62 7.5 4.79 9.91 7.12 11.6 6.91 6.96 2.62"/>
    </clipPath>
    <linearGradient id="linear-gradient-13" y1="918.67" y2="918.67" gradientTransform="translate(-73964.85 -30011.14) rotate(-90) scale(80.52)" xlink:href="#linear-gradient-12"/>
    <clipPath id="clippath-13">
      <polygon class="cls-1" points="29.18 25.71 30.29 26.77 32.35 26.12 30.88 24.76 29.18 25.71"/>
    </clipPath>
    <linearGradient id="linear-gradient-14" y1="918.67" y2="918.67" gradientTransform="translate(-73943.37 -30019.94) rotate(-90) scale(80.52)" xlink:href="#linear-gradient-12"/>
    <clipPath id="clippath-14">
      <polygon class="cls-1" points="9.91 7.12 11.17 8.33 13.05 8.26 11.6 6.91 9.91 7.12"/>
    </clipPath>
    <linearGradient id="linear-gradient-15" y1="918.67" y2="918.67" gradientTransform="translate(-73962.44 -30012.31) rotate(-90) scale(80.52)" xlink:href="#linear-gradient-12"/>
    <clipPath id="clippath-15">
      <polygon class="cls-1" points="6.01 3.36 7.5 4.79 6.96 2.62 6.01 3.36"/>
    </clipPath>
    <linearGradient id="linear-gradient-16" y1="918.67" y2="918.67" gradientTransform="translate(-73967.29 -30009.78) rotate(-90) scale(80.52)" xlink:href="#linear-gradient-12"/>
    <clipPath id="clippath-16">
      <polygon class="cls-1" points="23.37 28.97 16.47 32.83 32.05 28.47 30.29 26.77 23.37 28.97"/>
    </clipPath>
    <linearGradient id="linear-gradient-17" x1="-373.26" y1="918.67" x2="-372.26" y2="918.67" gradientTransform="translate(-20057.46 49492.77) rotate(180) scale(53.84)" gradientUnits="userSpaceOnUse">
      <stop offset="0" stop-color="#40b449"/>
      <stop offset=".22" stop-color="#0199b9"/>
      <stop offset="1" stop-color="#262e6b"/>
    </linearGradient>
    <clipPath id="clippath-17">
      <polygon class="cls-1" points="30.29 26.77 32.05 28.47 32.35 26.12 32.35 26.12 30.29 26.77"/>
    </clipPath>
    <linearGradient id="linear-gradient-18" y1="918.67" y2="918.67" gradientTransform="translate(-20058.34 49490.08) rotate(-180) scale(53.84)" xlink:href="#linear-gradient-17"/>
    <clipPath id="clippath-18">
      <polygon class="cls-1" points="15.65 31.41 15.65 31.41 23.37 28.97 29.18 25.71 28.38 24.93 15.65 31.41"/>
    </clipPath>
    <linearGradient id="linear-gradient-19" x1="-373.26" y1="918.67" x2="-372.26" y2="918.67" gradientTransform="translate(-23409.77 57749.39) rotate(-180) scale(62.83)" gradientUnits="userSpaceOnUse">
      <stop offset="0" stop-color="#40b449"/>
      <stop offset=".26" stop-color="#0199b9"/>
      <stop offset=".27" stop-color="#0096b8"/>
      <stop offset=".51" stop-color="#046598"/>
      <stop offset=".72" stop-color="#1e4380"/>
      <stop offset=".89" stop-color="#263370"/>
      <stop offset="1" stop-color="#262e6b"/>
    </linearGradient>
    <clipPath id="clippath-19">
      <polygon class="cls-1" points="30.11 24.05 30.88 24.76 32.07 24.09 31.59 23.3 30.11 24.05"/>
    </clipPath>
    <linearGradient id="linear-gradient-20" y1="918.67" y2="918.67" gradientTransform="translate(-23410.89 57745.18) rotate(-180) scale(62.83)" xlink:href="#linear-gradient-19"/>
    <clipPath id="clippath-20">
      <polygon class="cls-1" points="32.94 22.61 33.45 23.32 37.24 21.2 37.73 20.17 37.73 20.17 32.94 22.61"/>
    </clipPath>
    <linearGradient id="linear-gradient-21" y1="918.67" y2="918.67" gradientTransform="translate(-23410.85 57743.14) rotate(180) scale(62.83)" xlink:href="#linear-gradient-19"/>
    <clipPath id="clippath-21">
      <polygon class="cls-1" points="28.38 24.93 29.18 25.71 30.88 24.76 30.11 24.05 28.38 24.93"/>
    </clipPath>
    <linearGradient id="linear-gradient-22" y1="918.67" y2="918.67" gradientTransform="translate(-23411.15 57745.83) rotate(-180) scale(62.83)" xlink:href="#linear-gradient-19"/>
    <clipPath id="clippath-22">
      <polygon class="cls-1" points="15.64 31.41 16.47 32.83 23.37 28.97 15.64 31.41"/>
    </clipPath>
    <linearGradient id="linear-gradient-23" y1="918.67" y2="918.67" gradientTransform="translate(-23408.54 57752.28) rotate(180) scale(62.83)" xlink:href="#linear-gradient-19"/>
    <clipPath id="clippath-23">
      <polygon class="cls-1" points="37.24 21.2 35.11 25.65 36.69 27.87 38.27 20.63 38.27 20.62 37.24 21.2"/>
    </clipPath>
    <linearGradient id="linear-gradient-24" x1="-373.26" y1="918.67" x2="-372.26" y2="918.67" gradientTransform="translate(-25870.7 63802.65) rotate(180) scale(69.42)" gradientUnits="userSpaceOnUse">
      <stop offset="0" stop-color="#40b449"/>
      <stop offset=".34" stop-color="#0199b9"/>
      <stop offset="1" stop-color="#262e6b"/>
    </linearGradient>
    <clipPath id="clippath-24">
      <polygon class="cls-1" points="37.24 21.2 37.24 21.2 38.27 20.62 37.73 20.17 37.24 21.2"/>
    </clipPath>
    <linearGradient id="linear-gradient-25" y1="918.67" y2="918.67" gradientTransform="translate(-25870.06 63799.85) rotate(180) scale(69.42)" xlink:href="#linear-gradient-24"/>
    <clipPath id="clippath-25">
      <polygon class="cls-1" points="32.07 24.09 34.19 27.56 35.11 25.65 33.45 23.32 32.07 24.09"/>
    </clipPath>
    <linearGradient id="linear-gradient-26" x1="-373.26" y1="918.67" x2="-372.26" y2="918.67" gradientTransform="translate(-25589.9 63112.36) rotate(180) scale(68.67)" gradientUnits="userSpaceOnUse">
      <stop offset="0" stop-color="#40b449"/>
      <stop offset=".31" stop-color="#0199b9"/>
      <stop offset="1" stop-color="#262e6b"/>
    </linearGradient>
    <clipPath id="clippath-26">
      <polygon class="cls-1" points="22.93 9.12 31.59 23.3 32.94 22.61 23.21 8.92 22.93 9.12"/>
    </clipPath>
    <linearGradient id="linear-gradient-27" y1="918.67" y2="918.67" gradientTransform="translate(-25593.87 63103.06) rotate(180) scale(68.67)" xlink:href="#linear-gradient-26"/>
    <clipPath id="clippath-27">
      <polygon class="cls-1" points="31.59 23.3 32.07 24.09 33.45 23.32 32.94 22.61 31.59 23.3"/>
    </clipPath>
    <linearGradient id="linear-gradient-28" y1="918.67" y2="918.67" gradientTransform="translate(-25590.91 63110.21) rotate(-180) scale(68.67)" xlink:href="#linear-gradient-26"/>
    <clipPath id="clippath-28">
      <polygon class="cls-1" points="34.19 27.56 36.69 27.87 35.11 25.65 34.19 27.56"/>
    </clipPath>
    <linearGradient id="linear-gradient-29" y1="918.67" y2="918.67" gradientTransform="translate(-25588.87 63113.82) rotate(180) scale(68.67)" xlink:href="#linear-gradient-26"/>
  </defs>
  <g id="Layer_1-2" data-name="Layer_1">
    <g>
      <g class="cls-60">
        <rect class="cls-11" x="18.9" y="9.72" width=".51" height=".42" transform="translate(-2.41 9.27) rotate(-25.66)"/>
      </g>
      <path class="cls-2" d="M22.09,23.49c-.06,0-.12,0-.17,0-1.19,0-2.12.51-3.04,1.21-.14-.82-.18-1.62-.18-2.31,0-.8.06-1.47.1-1.9.35.22.45.66.45,1.06,0,.32-.06.61-.11.75.36-.43.47-.87.47-1.26,0-.44-.15-.8-.23-.94.57.46.65,1.04.65,1.47,0,.1,0,.19,0,.27.11-.22.19-.51.19-.82,0-.46-.18-.99-.69-1.45.77.18,1.09.92,1.1,1.47,0,0,0,.02.01.03.05-.18.07-.35.07-.51,0-.19-.03-.36-.09-.5-.23-.6-.83-.86-1.13-.91.07,0,.14-.01.21-.01.45,0,.74.16.92.31.12.11.19.22.23.26-.02-.22-.11-.4-.23-.55-.24-.29-.63-.43-.99-.43-.15,0-.3.02-.42.07.18-.26.49-.37.76-.37.13,0,.24.02.34.06-.21-.24-.48-.36-.75-.36-.28,0-.57.14-.76.43-.04-.07-.08-.15-.12-.24-.06-.15-.11-.31-.14-.48,0-.02-.02-.03-.03-.03-.01,0-.03.01-.03.03-.04.16-.08.33-.15.48-.04.08-.08.16-.13.24-.19-.29-.47-.43-.75-.43s-.54.12-.74.37c.09-.04.21-.07.34-.07.26,0,.57.11.74.37-.13-.05-.27-.08-.43-.08-.35,0-.73.14-.97.42-.12.15-.21.33-.22.56.03-.06.1-.16.22-.27.17-.15.45-.3.88-.3.08,0,.16,0,.24.02-.3.04-.9.3-1.13.9-.05.14-.09.3-.09.49,0,.16.02.33.08.52v-.03c0-.55.32-1.28,1.11-1.46-.52.45-.7.97-.7,1.43,0,.32.08.6.2.83,0-.09-.02-.19-.02-.31,0-.42.1-.98.66-1.42-.08.14-.24.49-.24.93,0,.38.11.83.48,1.26-.06-.14-.12-.43-.12-.75,0-.4.1-.83.46-1.05.03.42.09,1.08.09,1.87,0,.7-.04,1.51-.18,2.34-.92-.71-1.85-1.21-3.04-1.21-.06,0-.11,0-.17,0-.62.03-1.22.21-1.66.46,0,0,0,0,0,.01,0,0,0,.02.01.02,0,0,0,0,0,0,.42-.13.85-.2,1.29-.2.12,0,.24,0,.36.02.52.05,1.01.19,1.47.4.64.29,1.22.71,1.74,1.14-.33.28-1.44,1.34-1.81,1.52-.08-.1-.2-.17-.33-.17-.03,0-.06,0-.09,0-.15.03-.27.15-.31.3,0,.03-.01.07-.01.1,0,.1.03.2.09.26.12.12.25.17.4.17.1,0,.2-.02.31-.07.51-.22,1.15-.89,1.94-1.61.07-.06.13-.12.2-.18.07.07.14.12.2.18.79.72,1.42,1.39,1.94,1.61.11.04.21.07.31.07.14,0,.28-.05.4-.17.06-.06.09-.15.09-.25,0-.03,0-.07-.01-.1-.03-.15-.16-.27-.31-.3-.03,0-.06,0-.09,0-.14,0-.26.07-.33.17-.36-.18-1.49-1.25-1.81-1.52.52-.44,1.1-.86,1.74-1.14.46-.21.94-.35,1.47-.4.12-.01.24-.02.36-.02.44,0,.87.07,1.29.2h0s.02,0,.02-.02c0,0,0,0,0-.01-.45-.26-1.04-.43-1.66-.46"/>
      <g class="cls-31">
        <rect class="cls-10" x="6.07" y="-3.39" width="15.01" height="13.69" transform="translate(.87 9.36) rotate(-39.2)"/>
      </g>
      <g class="cls-34">
        <rect class="cls-9" x="4.36" y="-.62" width="2.74" height="2.58" transform="translate(.87 3.77) rotate(-39.2)"/>
      </g>
      <g class="cls-32">
        <rect class="cls-8" x="7.99" y="6.52" width="3.31" height="2.51" transform="translate(-2.42 4.94) rotate(-25.66)"/>
      </g>
      <g class="cls-33">
        <rect class="cls-5" x="11.62" y="4.32" width="9.29" height="5.86" transform="translate(-1.53 7.76) rotate(-25.66)"/>
      </g>
      <g class="cls-39">
        <rect class="cls-6" x=".07" y="6.02" width="6.94" height="4.22" transform="translate(-3.17 2.33) rotate(-25.66)"/>
      </g>
      <g class="cls-36">
        <rect class="cls-4" x="16.85" y="5.04" width="4.42" height="3.63" transform="translate(-1.09 8.93) rotate(-25.66)"/>
      </g>
      <g class="cls-35">
        <rect class="cls-3" x="5.14" y="3.1" width="3.86" height="4.64" transform="translate(-1.75 4.13) rotate(-29.12)"/>
      </g>
      <g class="cls-38">
        <rect class="cls-7" x="1.48" y="8.19" width="18.73" height="25.47" transform="translate(-8.81 7.92) rotate(-29.12)"/>
      </g>
      <g class="cls-37">
        <rect class="cls-40" x="6.68" y="7.03" width="1.91" height="1.77" transform="translate(-2.89 4.72) rotate(-29.12)"/>
      </g>
      <g class="cls-17">
        <rect class="cls-41" x="9.48" y="26.64" width="6.59" height="7.86" transform="translate(-13.26 10.08) rotate(-29.12)"/>
      </g>
      <g class="cls-14">
        <rect class="cls-42" x="8.28" y="4.01" width="24.71" height="25.16" transform="translate(-5.02 23.14) rotate(-53.11)"/>
      </g>
      <g class="cls-21">
        <rect class="cls-43" x="6.09" y="1.67" width="6.38" height="6.41" transform="translate(-.19 9.36) rotate(-53.11)"/>
      </g>
      <g class="cls-19">
        <rect class="cls-45" x="29.01" y="23.9" width="3.51" height="3.74" transform="translate(-8.31 34.91) rotate(-53.11)"/>
      </g>
      <g class="cls-20">
        <rect class="cls-52" x="9.97" y="5.94" width="3.02" height="3.36" transform="translate(-1.51 12.23) rotate(-53.11)"/>
      </g>
      <g class="cls-18">
        <rect class="cls-53" x="5.44" y="2.46" width="2.63" height="2.49" transform="translate(-.27 6.88) rotate(-53.11)"/>
      </g>
      <g class="cls-15">
        <rect class="cls-54" x="15.9" y="23.99" width="16.71" height="11.62" transform="translate(-9.65 11.72) rotate(-22.79)"/>
      </g>
      <g class="cls-12">
        <rect class="cls-55" x="29.92" y="25.81" width="2.81" height="2.96" transform="translate(-8.13 14.26) rotate(-22.79)"/>
      </g>
      <g class="cls-16">
        <rect class="cls-44" x="14.92" y="22.56" width="14.99" height="11.22" transform="translate(-9.16 10.88) rotate(-22.79)"/>
      </g>
      <g class="cls-13">
        <rect class="cls-47" x="29.9" y="22.98" width="2.38" height="2.11" transform="translate(-6.88 13.92) rotate(-22.79)"/>
      </g>
      <g class="cls-25">
        <rect class="cls-46" x="32.52" y="19.37" width="5.63" height="4.76" transform="translate(-5.66 15.38) rotate(-22.79)"/>
      </g>
      <g class="cls-26">
        <rect class="cls-48" x="28.16" y="23.63" width="2.95" height="2.5" transform="translate(-7.32 13.42) rotate(-22.79)"/>
      </g>
      <g class="cls-27">
        <rect class="cls-49" x="15.2" y="27.62" width="8.62" height="6.55" transform="translate(-10.44 9.97) rotate(-22.79)"/>
      </g>
      <g class="cls-28">
        <rect class="cls-57" x="33.83" y="20.3" width="5.72" height="7.9" transform="translate(-6.53 16.1) rotate(-22.79)"/>
      </g>
      <g class="cls-29">
        <rect class="cls-51" x="37.08" y="20.01" width="1.35" height="1.35" transform="translate(-5.07 16.24) rotate(-22.79)"/>
      </g>
      <g class="cls-30">
        <rect class="cls-58" x="31.37" y="22.9" width="4.44" height="5.08" transform="translate(-7.23 15) rotate(-22.79)"/>
      </g>
      <g class="cls-23">
        <rect class="cls-56" x="20.54" y="7.54" width="14.8" height="17.13" transform="translate(-4.06 12.08) rotate(-22.79)"/>
      </g>
      <g class="cls-22">
        <rect class="cls-50" x="31.37" y="22.31" width="2.29" height="2.09" transform="translate(-6.51 14.42) rotate(-22.79)"/>
      </g>
      <g class="cls-24">
        <rect class="cls-59" x="33.86" y="25.26" width="3.16" height="3.01" transform="translate(-7.6 15.82) rotate(-22.79)"/>
      </g>
      <g>
        <path class="cls-2" d="M44.42,22.3h.27v2.31h-.27v-2.31ZM47.9,24.61h.27v-2.31h-.27v2.31ZM79.28,24.61h.27v-2.31h-.27v2.31ZM86.66,22.3h-.27v2.31h.27v-2.31ZM49.44,23.54v-.3c-.25-.07-.43-.15-.43-.35s.18-.35.43-.37v-.25c-.42.02-.71.28-.71.63,0,.43.37.54.71.64M49.6,22.53c.2.02.38.11.5.26l.03.03.18-.2-.02-.03c-.17-.19-.4-.3-.69-.32v.25ZM49.44,24.39c-.3-.03-.5-.2-.59-.3l-.03-.03-.18.2.02.03c.18.22.46.35.77.36v-.26ZM49.6,23.29v.3c.27.08.47.17.47.41,0,.18-.13.38-.47.4v.25c.55-.03.75-.36.75-.67,0-.48-.41-.6-.75-.7M53.13,22.3h-.27v2.31h.27v-2.31ZM53.29,22.55h.43c.27,0,.46.18.46.44s-.18.44-.46.44h-.43v.24h.58c.36-.05.59-.31.59-.68,0-.41-.29-.69-.72-.69h-.45v.25ZM53.98,23.83h-.33l.52.78h.34l-.54-.78ZM54.95,22.3h-.33l.92,1.33v.98h.27v-1.04l-.87-1.27ZM55.93,23.47l.81-1.17h-.33l-.64.93.16.23ZM42.88,24.23l.79-1.93h-.28l-.65,1.59.14.33ZM41.92,22.3h-.27l.95,2.31h.27l-.95-2.31ZM43.56,22.97v1.65s.27,0,.27,0v-2.31h0l-.27.67ZM41.47,22.3h0v2.31h.27v-1.66l-.27-.65ZM69.95,24.23l.58-1.42.2-.5h-.28l-.65,1.59.14.33ZM70.64,22.97v1.65s.27,0,.27,0v-2.31l-.27.67ZM68.99,22.3h-.27l.94,2.29v.02h.28l-.95-2.31ZM68.55,22.3h0v2.31h.27v-1.66l-.27-.65ZM71.84,22.3h-.27v.04s.94,2.25.94,2.25v.02h.28l-.95-2.31ZM72.8,24.23l.58-1.42.2-.5h-.28l-.65,1.59.14.33ZM73.49,22.97v1.65s.27,0,.27,0v-2.31h0l-.27.67ZM71.4,22.3h0v2.31h.27v-1.66l-.27-.65ZM51.26,22.3h-.58v.25h.58v-.25ZM51.84,22.55h.57v-.25h-.57v.25ZM51.42,24.61h.27v-2.31h-.27v2.31ZM59.03,24.39c-.45-.05-.75-.41-.75-.93s.3-.89.75-.93v-.25c-.61.05-1.03.52-1.03,1.18s.42,1.14,1.03,1.18v-.25ZM59.18,22.27v.25c.47.03.79.4.79.94s-.32.91-.79.94v.25c.63-.03,1.07-.52,1.07-1.19s-.44-1.16-1.07-1.19M61.13,22.55h1.07v-.25h-1.07v.25ZM60.97,22.3h-.27v2.31h.27v-2.31ZM61.13,23.56h1.04v-.25h-1.04v.25ZM65.39,24.06l-.02.03c-.13.18-.35.29-.58.3v.25c.33-.01.59-.14.81-.41l.03-.04-.23-.14ZM64.78,22.52c.23.02.45.13.58.3l.02.03.23-.15-.03-.03c-.2-.26-.48-.39-.8-.41v.25ZM64.63,24.39c-.46-.06-.77-.43-.77-.93s.32-.87.77-.93v-.25c-.62.06-1.05.54-1.05,1.18s.43,1.13,1.05,1.19v-.25ZM66.99,24.4c-.45-.05-.75-.41-.75-.93s.3-.89.75-.93v-.25c-.61.05-1.03.52-1.03,1.18s.42,1.14,1.03,1.18v-.25ZM67.14,22.28v.25c.47.03.79.4.79.94s-.32.91-.79.94v.25c.63-.03,1.07-.51,1.07-1.19s-.44-1.16-1.07-1.19M88.22,24.4c-.45-.05-.75-.41-.75-.93s.3-.89.75-.93v-.25c-.61.05-1.03.52-1.03,1.18s.42,1.14,1.03,1.18v-.25ZM88.37,22.28v.25c.47.03.78.4.78.94s-.32.91-.78.94v.25c.63-.03,1.07-.52,1.07-1.19s-.44-1.16-1.07-1.19M75.21,24.38c-.36-.03-.56-.26-.56-.66v-1.41h-.27v1.42c0,.57.3.9.83.93v-.27ZM75.92,22.3v1.41c0,.4-.2.63-.56.66v.27c.53-.03.83-.37.83-.93v-1.42h-.27ZM81.13,24.39c-.46-.06-.77-.43-.77-.93s.32-.87.77-.93v-.25c-.62.06-1.05.54-1.05,1.18s.43,1.13,1.05,1.19v-.25ZM81.29,22.52c.23.02.45.13.58.3l.02.03.23-.15-.03-.03c-.2-.26-.48-.39-.8-.41v.25ZM81.89,24.06l-.02.03c-.13.18-.35.29-.58.3v.25c.32-.01.59-.14.81-.41l.03-.04-.23-.14ZM45.63,22.3h-.33l1.63,2.31h.36l-1.66-2.31ZM47.24,24.28v-1.97h-.27v1.6l.27.38ZM45.35,22.65v1.97h.27v-1.59l-.27-.38ZM84.79,22.31h-.58v.25h.58v-.25ZM85.21,22.31h-.27v2.31h.27v-2.31ZM85.37,22.56h.57v-.25h-.57v.25ZM78.67,24.28v-1.98h-.27v1.61l.27.38ZM77.06,22.3h-.32l1.63,2.31h.35l-1.66-2.31ZM76.78,22.64v1.97h.27v-1.59l-.27-.38ZM90.22,22.3h-.33l1.63,2.31h.35l-1.66-2.31ZM91.83,24.28v-1.98h-.27v1.6l.27.38ZM89.94,22.64v1.97h.27v-1.59l-.27-.38ZM83.65,23.75h-.55l-.11.26h.76l-.1-.26ZM83.6,22.48l-.14.36.7,1.77h.3l-.86-2.13ZM83.51,22.3h-.28l-.92,2.26-.02.05h.3l.93-2.31Z"/>
        <path class="cls-2" d="M93.05,23.54v-.3c-.25-.07-.43-.15-.43-.35s.18-.35.43-.37v-.25c-.42.03-.72.28-.72.63,0,.42.37.54.72.63"/>
        <path class="cls-2" d="M93.21,22.53c.2.02.38.11.5.26l.03.03.18-.2-.02-.03c-.17-.19-.41-.3-.69-.32v.25Z"/>
        <path class="cls-2" d="M93.05,24.39c-.3-.03-.5-.2-.59-.3l-.03-.03-.18.2.02.03c.18.22.46.35.77.36v-.26Z"/>
        <path class="cls-2" d="M93.21,23.29v.3c.27.08.47.17.47.41,0,.18-.13.38-.47.4v.25c.55-.03.75-.36.75-.67,0-.48-.41-.6-.75-.7"/>
        <rect class="cls-2" x="49.37" y="26.08" width=".27" height="2.31"/>
        <rect class="cls-2" x="65.62" y="26.08" width=".27" height="2.31"/>
        <polygon class="cls-2" points="92.32 26.08 91.99 26.08 92.91 27.41 92.91 28.39 93.18 28.39 93.18 27.35 92.32 26.08"/>
        <polygon class="cls-2" points="93.3 27.24 94.11 26.08 93.79 26.08 93.14 27.01 93.3 27.24"/>
        <polygon class="cls-2" points="59.46 26.08 59.19 26.08 59.21 26.12 60.13 28.37 60.14 28.39 60.41 28.39 59.46 26.08"/>
        <polygon class="cls-2" points="60.43 28 61.01 26.58 61.21 26.08 60.94 26.08 60.29 27.67 60.43 28"/>
        <polygon class="cls-2" points="59.02 26.08 59.02 26.08 59.02 28.39 59.29 28.39 59.29 26.73 59.02 26.08"/>
        <polygon class="cls-2" points="61.11 26.74 61.11 28.39 61.38 28.39 61.38 26.08 61.38 26.08 61.11 26.74"/>
        <rect class="cls-2" x="64.26" y="26.08" width=".27" height="2.31"/>
        <rect class="cls-2" x="64.68" y="26.08" width=".57" height=".25"/>
        <rect class="cls-2" x="63.53" y="26.08" width=".58" height=".25"/>
        <path class="cls-2" d="M55.4,28.17c-.45-.05-.75-.41-.75-.93s.3-.89.75-.93v-.25c-.61.05-1.03.52-1.03,1.18s.42,1.14,1.03,1.18v-.25Z"/>
        <path class="cls-2" d="M55.56,26.05v.25c.47.03.78.4.78.94s-.31.91-.78.94v.25c.63-.03,1.07-.51,1.07-1.19,0-.68-.44-1.16-1.07-1.19"/>
        <path class="cls-2" d="M67.36,28.17c-.45-.05-.75-.41-.75-.93s.3-.89.75-.93v-.25c-.61.05-1.03.52-1.03,1.18s.42,1.14,1.03,1.18v-.25Z"/>
        <path class="cls-2" d="M67.52,26.05v.25c.47.03.78.4.78.94s-.31.91-.78.94v.25c.63-.03,1.07-.51,1.07-1.19s-.44-1.16-1.07-1.19"/>
        <rect class="cls-2" x="74.61" y="27.08" width="1.05" height=".25"/>
        <rect class="cls-2" x="74.61" y="28.14" width="1.07" height=".25"/>
        <polygon class="cls-2" points="42.63 26.26 42.49 26.62 43.19 28.39 43.49 28.39 42.63 26.26"/>
        <polygon class="cls-2" points="42.68 27.53 42.12 27.53 42.02 27.79 42.78 27.79 42.68 27.53"/>
        <polygon class="cls-2" points="42.54 26.08 42.26 26.08 41.33 28.34 41.31 28.39 41.61 28.39 42.54 26.08"/>
        <polygon class="cls-2" points="45.65 28.06 45.65 26.08 45.38 26.08 45.38 27.68 45.65 28.06"/>
        <polygon class="cls-2" points="44.04 26.08 43.71 26.08 45.34 28.39 45.69 28.39 44.04 26.08"/>
        <polygon class="cls-2" points="43.76 26.42 43.76 28.39 44.02 28.39 44.02 26.8 43.76 26.42"/>
        <polygon class="cls-2" points="69.01 26.43 69.01 28.39 69.28 28.39 69.28 26.81 69.01 26.43"/>
        <polygon class="cls-2" points="70.9 28.06 70.9 26.08 70.63 26.08 70.63 27.69 70.9 28.06"/>
        <polygon class="cls-2" points="70.59 28.39 70.94 28.39 69.28 26.08 68.95 26.08 70.57 28.37 70.59 28.39"/>
        <polygon class="cls-2" points="82.71 28.06 82.71 26.08 82.44 26.08 82.44 27.68 82.71 28.06"/>
        <polygon class="cls-2" points="81.1 26.08 80.77 26.08 82.39 28.39 82.75 28.39 81.1 26.08"/>
        <polygon class="cls-2" points="80.81 26.42 80.81 28.39 81.08 28.39 81.08 26.8 80.81 26.42"/>
        <polygon class="cls-2" points="52.04 28.05 52.04 26.08 51.77 26.08 51.77 27.68 52.04 28.05"/>
        <polygon class="cls-2" points="50.15 26.43 50.15 28.39 50.42 28.39 50.42 26.81 50.15 26.43"/>
        <polygon class="cls-2" points="51.73 28.39 52.09 28.39 50.43 26.08 50.1 26.08 51.72 28.37 51.73 28.39"/>
        <rect class="cls-2" x="46.17" y="26.08" width=".27" height="2.31"/>
        <path class="cls-2" d="M46.92,26.08h-.33v.25h.33c.53,0,.89.35.89.88,0,.56-.35.93-.89.93h-.33v.25h.33c.7,0,1.17-.47,1.17-1.18,0-.68-.47-1.14-1.17-1.14"/>
        <rect class="cls-2" x="52.56" y="26.08" width=".27" height="2.31"/>
        <rect class="cls-2" x="52.98" y="26.08" width="1.07" height=".25"/>
        <rect class="cls-2" x="52.98" y="27.08" width="1.05" height=".25"/>
        <path class="cls-2" d="M57.42,26.33h.43c.27,0,.46.18.46.44s-.18.44-.46.44h-.43v.24h.58c.36-.05.59-.31.59-.68,0-.41-.29-.69-.72-.69h-.45v.25Z"/>
        <polygon class="cls-2" points="58.11 27.61 57.79 27.61 58.3 28.39 58.65 28.39 58.11 27.61"/>
        <rect class="cls-2" x="56.99" y="26.08" width=".27" height="2.31"/>
        <polygon class="cls-2" points="63.06 27.53 62.5 27.53 62.39 27.79 63.16 27.79 63.06 27.53"/>
        <polygon class="cls-2" points="63.01 26.26 62.86 26.62 63.57 28.39 63.87 28.39 63.01 26.26"/>
        <polygon class="cls-2" points="62.91 26.08 62.63 26.08 61.71 28.34 61.66 28.39 61.98 28.39 62.91 26.08"/>
        <polygon class="cls-2" points="79.87 27.33 79.87 27.08 78.69 27.08 78.69 26.08 78.43 26.08 78.43 27.33 79.87 27.33"/>
        <rect class="cls-2" x="78.42" y="27.49" width=".27" height=".9"/>
        <path class="cls-2" d="M90.99,26.3c.24.01.46.13.59.31l.02.03.23-.15-.03-.03c-.2-.26-.49-.4-.81-.41v.25Z"/>
        <polygon class="cls-2" points="90.84 27.42 91.84 27.42 91.84 27.42 91.84 27.17 90.84 27.17 90.84 27.42"/>
        <path class="cls-2" d="M91.58,27.57v.35c-.12.15-.36.24-.59.25v.25c.35,0,.63-.13.84-.38h.01v-.48h-.26Z"/>
        <path class="cls-2" d="M90.84,28.17c-.45-.06-.77-.44-.77-.93s.31-.87.77-.93v-.26c-.62.06-1.05.54-1.05,1.18s.43,1.13,1.05,1.18v-.25Z"/>
        <rect class="cls-2" x="86.21" y="28.14" width=".93" height=".25"/>
        <rect class="cls-2" x="72.83" y="26.08" width=".27" height="2.31"/>
        <rect class="cls-2" x="73.26" y="26.08" width=".57" height=".25"/>
        <rect class="cls-2" x="72.1" y="26.08" width=".58" height=".25"/>
        <rect class="cls-2" x="74.2" y="26.08" width=".27" height="2.31"/>
        <rect class="cls-2" x="74.61" y="27.08" width="1.05" height=".25"/>
        <rect class="cls-2" x="74.61" y="26.08" width="1.05" height=".25"/>
        <rect class="cls-2" x="80.03" y="26.08" width=".27" height="2.31"/>
        <rect class="cls-2" x="85.79" y="26.08" width=".27" height="2.31"/>
        <path class="cls-2" d="M88.21,28.17c-.45-.05-.75-.41-.75-.93s.3-.89.75-.93v-.25c-.61.05-1.03.52-1.03,1.18s.42,1.14,1.03,1.18v-.25Z"/>
        <path class="cls-2" d="M88.37,26.04v.25c.47.03.78.4.78.94s-.31.91-.78.94v.25c.63-.03,1.06-.51,1.06-1.19s-.44-1.16-1.06-1.19"/>
        <path class="cls-2" d="M84.17,28.17c-.45-.05-.75-.41-.75-.93s.3-.89.75-.93v-.25c-.61.05-1.03.52-1.03,1.18s.42,1.14,1.03,1.18v-.25Z"/>
        <path class="cls-2" d="M84.32,26.04v.25c.47.03.78.4.78.94s-.31.91-.78.94v.25c.63-.03,1.07-.51,1.07-1.19s-.44-1.16-1.07-1.19"/>
        <path class="cls-2" d="M77.1,28.17c-.46-.06-.78-.43-.78-.93s.32-.87.78-.93v-.25c-.62.06-1.05.54-1.05,1.19s.43,1.13,1.05,1.18v-.25Z"/>
        <path class="cls-2" d="M77.25,26.3c.23.01.45.13.58.3l.02.03.23-.15-.03-.03c-.2-.26-.48-.39-.8-.41v.25h0Z"/>
        <path class="cls-2" d="M77.86,27.84l-.02.03c-.13.18-.35.29-.58.3v.25c.32-.01.59-.15.81-.41l.03-.03-.23-.14Z"/>
        <path class="cls-2" d="M69.21,14.8c.08.1.11.21.11.39v.55h.27v-.59c0-.21-.06-.39-.17-.52-.15-.18-.33-.25-.57-.25h-1.19v.27h1.21c.13,0,.27.07.34.16M78.21,14.12h-.27v1.62h.27v-1.62ZM77.86,13.56h-.27v.39h.27v-.39ZM82.06,13.55h-.27v2.61h.27v-2.61ZM78.52,13.56h-.27v.39h.27v-.39ZM79.78,13.93h-.27v1.81h.27v-1.81ZM79.77,16.17c.34,0,.62-.08.82-.23.21-.16.28-.44.28-.63v-1.75h-.27v1.71c0,.22-.06.37-.2.47-.13.1-.32.15-.53.15h-1.04l.03.27h.91ZM64.85,18.38l.1-.25c-.26-.15-.52-.23-.75-.23s-.5.08-.75.23l.1.25c.21-.13.43-.21.65-.21.23,0,.48.1.65.21M65.29,18.42v-.03s-.02-.03-.02-.03c-.04-.04-.09-.08-.15-.12l-.03-.02-.53,1.3h.28l.45-1.1ZM63.28,18.24c-.06.04-.11.08-.15.12l-.03.03.45,1.13h.3l-.54-1.3-.03.02ZM61.74,17.35h-.27v2.16h.27v-2.16ZM78.21,15.9h-30.4v.27h30.4v-.27ZM84.07,17.91h-.27v1.61h.27v-1.61ZM48.08,13.55h-.27v2.18h.27v-2.18ZM67.5,14.12h-.26v1.62h.26v-1.62ZM87.99,16.82c.47,0,.53-.36.53-.68v-2.01h-.27v2.01c0,.25-.04.41-.24.41-.04,0-.08,0-.12-.02l-.05-.02-.1.25.05.02c.06.03.14.05.2.05M89.37,17.34h-.27v.39h.27v-.39ZM86.17,17.91h-.27v1.61h.27v-1.61h0ZM89.85,13.55h-.27v2.61h.27v-2.61ZM89.1,19.51h.27v-1.61h-.27v1.61ZM45.77,13.93h-.27v1.81h.27v-1.81ZM93.5,16.17h0v-.27h-.11c-.65,0-.88-.4-.88-.75,0-.46.46-.75.88-.75h.11v-.27h0c-.76,0-1.26.4-1.26,1.02s.47,1.02,1.26,1.02M91.41,13.56h-.27v.39h.27v-.39ZM90.89,16.82c.47,0,.53-.36.53-.68v-2.01h-.27v2.01c0,.25-.04.41-.24.41-.04,0-.08,0-.12-.02l-.05-.02-.1.25.04.02c.06.03.14.05.2.05M91.2,17.34h-.27v.39h.27v-.39ZM86.32,13.56h-.27v.39h.27v-.39ZM86.54,16.17h0v-.27h-.11c-.51,0-.87-.31-.87-.75s.45-.75.87-.75h.11v-.27h0c-.73,0-1.24.42-1.24,1.02,0,.49.33,1.02,1.24,1.02M88.43,17.73h.27v-.39h-.27v.39ZM86.17,17.34h-.27v.39h.27v-.39ZM86.98,14.12h-.27v2.05h.27v-2.05ZM88.19,19.51c-.14-.13-.28-.32-.28-.59,0-.49.44-.75.85-.75h.18v-.27h-.08c-.76,0-1.22.39-1.22,1.02,0,.23.07.42.19.59h.36ZM86.98,13.56h-.27v.39h.27v-.39ZM75.85,17.34h-.27v.39h.27v-.39ZM71.2,19.95h.27v-2.59h-.27v2.59ZM74.84,18.93c0,.49.33,1.02,1.24,1.02h0v-.27h-.11c-.51,0-.87-.31-.87-.75s.45-.75.87-.75h.11v-.27h0c-.73,0-1.24.42-1.24,1.02M76.24,19.95h.26v-2.04h-.26v2.04ZM76.24,17.73h.27v-.39h-.27v.39ZM68.61,19.7c-.03.07-.07.13-.11.19l-.04.06h1.84v-.27h-1.67v.02ZM83.44,20.6h.27v-.39h-.27v.39ZM70.02,19.51h.27v-2.16h-.27v2.16ZM68.46,19.68s.02-.05.03-.07c0,0,0-.02.01-.03h0s.01-.06.02-.08c.03-.1.05-.21.05-.33,0-.21-.05-.41-.16-.58-.1-.17-.26-.31-.44-.4-.12-.06-.26-.09-.4-.1v.27c.43.04.73.37.73.81s-.3.77-.73.81v.27c.15-.01.3-.05.43-.11h0s.01-.01.02-.01h.02s.04-.03.06-.05h.02s.05-.04.07-.06c.02-.01.03-.03.05-.04h0s.01-.02.02-.02c.06-.06.12-.13.16-.21l.03-.06h0ZM93.5,19.95h0v-.27h-.11c-.65,0-.88-.41-.88-.75,0-.46.46-.75.88-.75h.11v-.27h0c-.76,0-1.26.4-1.26,1.02s.47,1.02,1.26,1.02M93.67,19.92s0,.01,0,.02c0,.01,0,.02,0,.03-.03.23-.2.36-.49.36-.18,0-.33-.07-.5-.16l-.05-.02-.13.24.05.02c.19.11.36.19.61.19.47,0,.78-.27.78-.68v-2.01h-.27v2.01ZM43.37,13.56h-.27v.39h.27v-.39ZM84.1,20.6h.27v-.39h-.27v.39ZM76.66,19.95h14.88v-.27h-14.88v.27ZM91.27,19.51h.27v-1.61h-.27v1.61ZM91.59,17.73h.27v-.39h-.27v.39ZM93.67,14.12v2.01s0,.01,0,.02v.03h0c-.02.23-.19.36-.49.36-.18,0-.33-.07-.5-.16l-.05-.02-.12.24.05.02c.19.11.36.19.61.19.48,0,.78-.27.78-.68v-2.01h-.27ZM46.58,15.93c.21-.16.28-.44.28-.63v-1.75h-.27v1.71c0,.22-.06.37-.2.47-.12.09-.29.14-.48.15h-.46s-.64,0-.64,0l.03.27h.91c.34,0,.62-.08.82-.23M66.55,18.66h0c-.08.16-.12.33-.12.51,0,.58.43,1.05,1,1.08v-.27c-.41-.03-.73-.38-.73-.81s.32-.78.73-.82v-.27c-.08,0-.16.01-.23.04-.27.08-.51.28-.64.54M43.1,17.73h.27v-.39h-.27v.39ZM44.13,15.74h.27v-1.62h-.27v1.62ZM41.95,15.74c-.14-.1-.2-.25-.2-.47v-.78h-.27v.82c0,.19.07.47.28.63.23.17.44.23.82.23h1.81v-.27h-1.91c-.21,0-.4-.05-.53-.15M42.71,13.56h-.27v.39h.27v-.39ZM41.95,19.52c-.14-.11-.2-.25-.2-.47v-.78h-.27v.82c0,.19.07.47.28.63.23.17.44.23.82.23h1.8v-.27h-1.9c-.21,0-.4-.05-.53-.15M42.71,17.34h-.27v.39h.27v-.39ZM44.12,19.51h.27v-1.61h-.27v1.61ZM56.72,19.92v.04c-.02.24-.2.37-.5.37-.18,0-.33-.07-.5-.16l-.05-.02-.12.24.04.02c.19.11.36.19.61.19.39,0,.78-.06.78-.53v-2.16h-.27v2.01h0ZM56.55,19.95h0v-.27h-.11c-.65,0-.89-.41-.89-.75,0-.46.46-.75.89-.75h.11v-.27h0c-.77,0-1.26.4-1.26,1.02s.47,1.02,1.26,1.02M66.4,19.7v-.02h-1.57,0s-7.68,0-7.68,0v.27h9.41l-.04-.06c-.04-.06-.08-.12-.11-.19M52.87,18.66h0c-.08.16-.12.33-.12.51,0,.58.44,1.05,1,1.08v-.27c-.41-.03-.73-.38-.73-.81s.32-.78.73-.82v-.27c-.08,0-.16.01-.23.04-.28.08-.51.28-.65.54M54.3,18.19c-.12-.06-.26-.09-.4-.1v.27c.43.04.73.37.73.82s-.3.76-.73.81v.27c.15-.01.3-.05.43-.11h0s.01-.01.02-.02h.01s.04-.03.07-.04h.02s.05-.04.07-.06c.02-.01.03-.03.05-.05,0,0,.01-.01.02-.02.06-.06.12-.13.16-.21l.03-.06h0s.02-.05.03-.07c0,0,0-.02,0-.03h0s.02-.06.02-.08c.03-.1.05-.21.05-.33,0-.21-.05-.41-.16-.58-.11-.17-.26-.31-.44-.4M52.72,19.7v-.02h-2.21s-5.38,0-5.38,0v.27h7.75l-.04-.06c-.04-.06-.08-.12-.11-.19M45.39,17.35h-.27v2.16h.27v-2.16Z"/>
      </g>
    </g>
  </g>
</svg>