<?xml version="1.0" encoding="UTF-8"?>
<svg id="Layer_2" xmlns="http://www.w3.org/2000/svg" viewBox="0 0 52.9 21.31">
  <defs>
    <style>
      .cls-1 {
        fill: #231f20;
      }
    </style>
  </defs>
  <g id="Layer_1-2" data-name="Layer_1">
    <g>
      <path class="cls-1" d="M51.24,15.89v5.42h-15.83V2.15c0-1.18.96-2.15,2.15-2.15v19.39h4.01-3.47s3.85-.01,3.85-.01c1.15,0,2.11-.88,2.11-2.18s-.87-2.06-2.02-2.06h-3.55v-2.12h3.56c2.34,0,3.7,1.49,3.7,3.54,0,1.17-.35,1.97-1.08,2.84h4.41v-1.35c0-1.18.96-2.15,2.15-2.15h0Z"/>
      <rect class="cls-1" x="49.12" y="13.01" width="2.12" height="2.18"/>
      <rect class="cls-1" x="22.01" y="9.95" width="2.12" height="2.18"/>
      <rect class="cls-1" x="45.96" y="13.01" width="2.12" height="2.18"/>
      <path class="cls-1" d="M34.33,10.36c-1.17,0-2.11.95-2.11,2.12v6.91h-6.03v-6.38h-3.88c-2.8,0-3.57,1.54-3.57,4.29,0,.74.05,1.37.19,1.89h-2.47c-1.15,0-1.62-.63-1.62-1.98v-3.62h-.03c-1.14,0-2.07.93-2.07,2.07v2.4h.01c.13,1.89,1.46,3.24,3.69,3.24h17.93v-10.95h-.03ZM24.15,19.39h-1.83c-1.27,0-1.43-.08-1.43-2.08s.16-2.04,1.43-2.04h1.83v4.12h0Z"/>
      <path class="cls-1" d="M.68,14.26c-.11,0-.21,0-.29.03-.08.02-.15.05-.21.1-.06.04-.1.1-.13.16-.03.07-.04.14-.04.23,0,.1.02.19.07.27.04.07.11.13.18.17.08.04.16.06.26.06.07,0,.14-.02.21-.05.07-.03.13-.07.19-.13.01-.01.02-.02.03-.03v.18h.33v-1.15c0-.12-.02-.22-.07-.31-.05-.08-.11-.14-.2-.19-.09-.04-.19-.06-.31-.06s-.24.03-.35.08c-.11.05-.21.13-.3.24l.22.24c.06-.08.11-.13.18-.16.06-.03.14-.05.22-.05.09,0,.16.03.21.08.05.05.08.12.08.22v.06h-.27ZM.88,14.85s-.09.07-.15.1c-.06.02-.12.03-.18.03-.04,0-.08-.01-.11-.03-.03-.02-.06-.04-.08-.07-.02-.03-.03-.07-.03-.11s0-.07.02-.1c.01-.03.03-.05.06-.07.03-.02.06-.04.1-.05.04-.01.09-.02.14-.02h.28v.25s-.04.04-.06.06h0Z"/>
      <path class="cls-1" d="M1.73,15.26h.17v-1s.01-.1.03-.14c.02-.04.04-.08.07-.11.03-.03.07-.06.11-.08.04-.02.09-.03.15-.03.06,0,.12,0,.16.03.04.03.08.07.1.12.02.06.03.13.03.21v.99h.35v-1.02c0-.15-.02-.28-.06-.38-.04-.1-.1-.18-.18-.23-.08-.05-.17-.08-.29-.08-.08,0-.16.02-.24.06-.08.04-.14.09-.2.15-.02.02-.03.04-.05.07v-.28h-.35v1.7h.18Z"/>
      <path class="cls-1" d="M.42,15.69s-.09-.06-.16-.06-.12.02-.17.06c-.04.04-.06.09-.06.16,0,.07.02.13.06.17.04.04.09.06.17.06s.12-.02.16-.06c.04-.04.06-.1.06-.16,0-.07-.02-.13-.06-.16H.42Z"/>
      <rect class="cls-1" x=".08" y="16.44" width=".35" height="1.66"/>
      <path class="cls-1" d="M1.66,16.78s.08.07.1.12c.02.06.03.13.03.22v.99h.35v-1.02c0-.15-.02-.28-.06-.38s-.1-.18-.17-.23c-.08-.05-.17-.08-.29-.08-.08,0-.16.02-.24.06-.08.04-.14.09-.2.15-.02.02-.03.04-.05.07v-.24h-.35v1.67h.35v-1s.01-.1.03-.14c.02-.04.04-.08.07-.11.03-.03.07-.06.11-.08.04-.02.09-.03.15-.03.06,0,.12,0,.16.03h0Z"/>
      <path class="cls-1" d="M2.65,16.02c-.04.08-.06.17-.06.27v.19h-.23v.34h.23v1.29h.35v-1.29h.34v-.34h-.34v-.17s0-.07.02-.1c.01-.03.03-.05.06-.06.03-.01.06-.02.1-.02.02,0,.05,0,.08.02.03.01.05.03.08.05l.11-.29s-.08-.08-.14-.1c-.06-.03-.12-.04-.18-.04-.09,0-.17.02-.24.07-.07.04-.13.11-.16.19h0Z"/>
      <path class="cls-1" d="M3.44,17.72c.07.13.16.23.28.31.12.07.25.11.4.11s.28-.04.4-.11c.12-.07.21-.18.28-.31s.1-.28.1-.45-.03-.32-.1-.45-.16-.23-.28-.31c-.12-.07-.25-.11-.4-.11s-.29.04-.4.11c-.12.07-.21.18-.28.31s-.1.28-.1.45.03.32.1.45M3.75,17c.04-.08.09-.14.15-.19.07-.04.14-.07.22-.07s.15.02.22.07c.06.04.12.11.15.18.04.08.05.17.05.27s-.02.19-.05.27c-.04.08-.09.14-.15.19-.06.04-.14.07-.22.07s-.16-.02-.22-.07c-.07-.04-.12-.11-.15-.19-.04-.08-.05-.17-.05-.27s.02-.19.05-.27"/>
      <path class="cls-1" d="M5.93,16.83s.06.02.08.03l.09-.42s-.04-.02-.07-.02c-.03,0-.06-.01-.09-.01-.07,0-.14.02-.21.06-.07.04-.13.09-.18.16-.03.03-.05.07-.07.11v-.29h-.34v1.66h.35v-.89c0-.06.01-.11.03-.16.02-.05.04-.09.08-.12s.07-.06.11-.08c.04-.02.09-.03.14-.03.03,0,.06,0,.09,0h0Z"/>
      <path class="cls-1" d="M6.6,17.1s0-.1.03-.14c.02-.04.04-.08.07-.11.03-.03.07-.06.11-.08.04-.02.09-.03.14-.03.09,0,.15.03.2.09.05.06.07.16.07.28v.98h.35v-.99c0-.05.01-.1.03-.14.02-.04.04-.08.07-.11.03-.03.07-.06.11-.08.04-.02.09-.03.14-.03.09,0,.16.03.21.09.04.06.07.15.07.28v.98h.35v-1c0-.15-.02-.28-.06-.38-.04-.1-.09-.18-.17-.23-.08-.05-.17-.08-.29-.08-.05,0-.1.01-.15.03-.05.02-.1.04-.15.07-.05.03-.09.07-.13.11-.03.04-.06.08-.08.12-.02-.06-.04-.11-.07-.15-.04-.06-.1-.11-.16-.13-.06-.03-.13-.04-.22-.04-.06,0-.11,0-.17.03-.05.02-.1.05-.15.08-.05.04-.09.08-.12.12,0,.01-.01.02-.02.04v-.24h-.35v1.67h.35v-1h0Z"/>
      <path class="cls-1" d="M9.28,18.14c.07,0,.14-.02.21-.05.07-.03.13-.07.19-.13.01,0,.02-.02.03-.03v.18h.33v-1.15c0-.12-.02-.22-.07-.3s-.11-.15-.2-.19c-.09-.04-.19-.06-.31-.06s-.24.03-.35.08c-.11.05-.21.14-.3.24l.22.24c.06-.08.11-.13.18-.17.06-.03.14-.05.22-.05.09,0,.15.03.21.08.05.05.08.12.08.21v.06h-.26c-.11,0-.21.01-.29.03-.08.02-.16.05-.21.1-.06.04-.1.1-.13.17-.03.07-.04.14-.04.23,0,.1.02.19.07.27.04.07.1.14.18.17.08.04.16.06.26.06h0ZM9.12,17.52s.03-.05.06-.07c.03-.02.06-.04.1-.05s.09-.02.14-.02h.28v.25s-.04.04-.06.06c-.04.04-.09.07-.15.1-.06.02-.12.03-.18.03-.04,0-.08-.01-.11-.03-.03-.02-.06-.04-.08-.07-.02-.03-.03-.07-.03-.11s0-.07.02-.1h0Z"/>
      <path class="cls-1" d="M.55,19.24c.07-.04.14-.07.23-.07.05,0,.1.01.15.03.05.02.1.05.14.08.04.04.08.08.11.12l.19-.26c-.06-.1-.14-.18-.26-.24s-.23-.09-.37-.09-.27.04-.38.11c-.11.08-.2.18-.26.31-.06.13-.1.28-.1.44s.03.31.1.44c.06.13.15.23.26.31.11.08.24.11.38.11.12,0,.25-.03.36-.09.11-.06.2-.13.27-.23l-.19-.26c-.04.05-.08.09-.12.13-.04.03-.09.06-.13.08-.05.02-.09.03-.15.03-.08,0-.16-.02-.22-.07-.07-.05-.12-.11-.16-.19-.04-.08-.06-.17-.06-.27s.02-.19.06-.27c.04-.08.09-.14.15-.19h0Z"/>
      <path class="cls-1" d="M2.58,18.94c-.12-.07-.25-.11-.4-.11s-.28.04-.4.11c-.12.07-.21.18-.28.31-.07.13-.1.28-.1.45s.03.32.1.45c.07.13.16.23.28.31.12.07.25.11.4.11s.28-.04.4-.11c.12-.07.21-.18.28-.31.07-.13.1-.28.1-.45s-.03-.32-.1-.45c-.07-.13-.16-.23-.28-.31M2.56,19.96c-.04.08-.09.14-.15.19-.07.05-.14.07-.22.07s-.15-.02-.22-.07-.12-.11-.15-.19c-.04-.08-.05-.17-.05-.27s.02-.19.05-.27c.04-.08.09-.14.15-.19s.14-.07.22-.07.15.02.22.07c.07.04.12.11.15.18.04.08.05.17.05.27s-.02.19-.05.27"/>
      <path class="cls-1" d="M5.25,18.91c-.08-.05-.17-.08-.29-.08-.05,0-.1.01-.15.03-.05.02-.1.04-.15.07-.05.03-.09.07-.13.11-.03.04-.06.08-.08.12-.02-.06-.04-.11-.07-.15-.04-.06-.1-.11-.16-.13-.06-.03-.13-.04-.22-.04-.06,0-.11.01-.16.03-.05.02-.1.05-.15.08-.05.04-.09.08-.12.12,0,.01-.01.02-.02.04v-.24h-.35v1.67h.35v-1s.01-.1.03-.14c.02-.04.04-.08.07-.11.03-.03.07-.06.11-.08.04-.02.09-.03.14-.03.09,0,.15.03.2.09.05.06.07.15.07.27v.98h.35v-.99c0-.05.01-.1.03-.14.02-.04.04-.08.07-.11.03-.03.07-.06.11-.08.04-.02.09-.03.14-.03.09,0,.16.03.21.09.04.06.07.15.07.28v.98h.35v-1c0-.15-.02-.28-.06-.38s-.09-.18-.17-.23h0Z"/>
      <path class="cls-1" d="M6.97,18.94c-.1-.07-.22-.11-.36-.11-.08,0-.16.02-.24.05-.08.04-.14.08-.19.14-.01.02-.03.03-.04.05v-.22h-.35v2.36h.35v-.9s.01.02.02.02c.05.06.12.11.21.15.08.04.16.06.25.06.13,0,.25-.04.35-.11.1-.07.18-.18.25-.31.06-.13.09-.28.09-.44s-.03-.32-.09-.44c-.06-.13-.14-.23-.24-.31M6.91,19.96c-.04.08-.09.14-.15.19-.06.05-.13.07-.22.07s-.16-.02-.22-.07c-.06-.04-.11-.1-.15-.19-.04-.08-.05-.17-.05-.27s.02-.19.05-.27c.04-.08.09-.14.15-.18.06-.04.14-.07.22-.07s.16.02.22.07c.06.04.11.11.15.18.04.08.05.16.05.27s-.02.19-.05.27h0Z"/>
      <path class="cls-1" d="M8.45,18.89c-.09-.04-.19-.06-.31-.06s-.25.03-.35.08-.21.13-.3.24l.22.24c.06-.08.11-.13.18-.16.06-.03.14-.05.22-.05.09,0,.15.03.21.08.05.05.08.12.08.22v.06h-.26c-.11,0-.21,0-.29.03-.08.02-.15.05-.21.1-.06.04-.1.1-.13.16-.03.07-.04.14-.04.23,0,.1.02.19.07.27.04.07.11.13.18.17.08.04.16.06.26.06.07,0,.14-.02.21-.05.07-.03.13-.07.19-.13.01-.01.02-.02.03-.03v.18h.33v-1.15c0-.12-.02-.22-.07-.31-.05-.08-.11-.14-.2-.19h0ZM8.34,20.12s-.09.07-.15.1c-.06.02-.12.03-.18.03-.04,0-.08-.01-.11-.03-.03-.02-.06-.04-.08-.07-.02-.03-.03-.07-.03-.11s0-.07.02-.1c.01-.03.03-.05.06-.07.03-.02.06-.04.1-.05.04-.01.09-.02.14-.02h.28v.25s-.04.04-.06.06h0Z"/>
      <path class="cls-1" d="M10.12,18.9c-.08-.05-.18-.08-.29-.08-.08,0-.16.02-.24.06-.08.04-.14.09-.2.15-.02.02-.03.04-.05.07v-.24h-.35v1.67h.35v-1c0-.05.01-.1.03-.14.02-.04.04-.08.07-.11.03-.03.07-.06.11-.08.04-.02.09-.03.14-.03.06,0,.12,0,.16.03.04.03.08.07.1.12.02.06.03.13.03.22v.99h.35v-1.02c0-.15-.02-.28-.06-.38s-.1-.18-.17-.23h0Z"/>
      <path class="cls-1" d="M11.73,18.86l-.36,1.1s-.03.09-.04.13c0,0,0-.02,0-.02-.01-.04-.03-.08-.04-.11l-.42-1.1h-.4l.69,1.71-.26.66h.37l.25-.7.63-1.67h-.41Z"/>
      <path class="cls-1" d="M12.76,4.67c-.02-.09-.04-.14-.05-.14-.48-.85-1.58-1.38-2.72-1.38-2.49-.02-4.45,1.52-4.45,4.45s1.87,4.54,4.4,4.52c.95-.02,2.29-.5,2.77-1.5v1.51s2.1-.01,2.1-.01l.02-8.95h-.03c-.97,0-1.78.63-2.03,1.5h0ZM10.18,10.19c-1.4,0-2.53-.97-2.53-2.59s1.12-2.57,2.53-2.57c3.33,0,3.33,5.16,0,5.16"/>
      <path class="cls-1" d="M20.63,3.14c-.97,0-1.91.31-2.67,1.33v-2.35C17.96.96,17.01,0,15.85,0v12.12h2.12v-4.53c0-1.33.87-2.43,2.11-2.43,1.12,0,1.94.68,1.94,2.3v1.61h2.11v-1.62c0-2.6-1.07-4.31-3.5-4.31h0Z"/>
      <path class="cls-1" d="M45.99,5.57v2.07c0,1.35-1.25,2.51-2.71,2.51s-2.31-1.02-2.31-2.37V3.14c-1.31,0-2.37,1.11-2.37,2.48v2.17c0,2.75,1.67,4.35,3.96,4.35,1.34,0,2.43-.49,3.43-1.39v1.38h2.09V3.14c-1.3,0-2.09,1.07-2.09,2.43h0Z"/>
      <path class="cls-1" d="M52.52,1.84c.13,0,.26.02.38.04V.06c-.17-.03-.35-.04-.52-.04-1.72,0-3.26,1.06-3.26,3.34v8.76h2.12v-2.18h0v-4.64h1.66v-2.2h-1.65c.09-.86.6-1.26,1.27-1.26h0ZM51.25,3.13h0v-.02.02Z"/>
      <path class="cls-1" d="M34.35,9.51h.02V3.17h-.03c-.97,0-1.78.63-2.03,1.5-.02-.09-.04-.14-.05-.14-.48-.85-1.58-1.38-2.72-1.38-2.49-.02-4.45,1.52-4.45,4.45s1.87,4.54,4.4,4.52c.48-.01,1.06-.13,1.58-.39.3-.15.55-.38.71-.67.5-.92,1.47-1.54,2.59-1.56h0ZM27.19,7.6c0-1.62,1.12-2.57,2.53-2.57,3.33,0,3.33,5.16,0,5.16-1.4,0-2.53-.97-2.53-2.59"/>
      <path class="cls-1" d="M3.29,10.29c-.07,0-.14,0-.22,0-.53-.05-.91-.38-1-.91-.02-.09-.02-.19-.02-.3v-1.92l.03-1.86h2.31v-2.13h-2.31v-1.1C2.08.92,1.15,0,0,0v9.34c0,1.08.59,2.14,1.61,2.54,1.15.45,3.11.27,3.32-1.24.02-.16.02-.33-.01-.49-.03-.25-.16-.47-.17-.46-.41.38-.91.6-1.46.6h0Z"/>
    </g>
  </g>
</svg>